<svg xmlns="http://www.w3.org/2000/svg" xmlns:xlink="http://www.w3.org/1999/xlink" width="120" zoomAndPan="magnify" viewBox="0 0 90 89.999999" height="120" preserveAspectRatio="xMidYMid meet" version="1.0"><defs><g/></defs><g fill="#458a6b" fill-opacity="0.4"><g transform="translate(30.490714, 77.651656)"><g><path d="M 3 -42 C 3 -36.898438 4.019531 -26.339844 11.761719 -26.339844 C 13.859375 -26.339844 15.898438 -27.421875 15.898438 -28.980469 C 15.898438 -28.980469 12.421875 -28.441406 12.421875 -41.761719 C 12.421875 -47.28125 13.378906 -53.699219 17.28125 -53.699219 C 21.179688 -53.699219 22.019531 -47.28125 22.019531 -41.761719 C 22.019531 -30.960938 18.480469 -26.699219 15.480469 -23.101562 C 9.78125 -16.261719 3.660156 -12.960938 3.660156 -5.339844 C 3.660156 2.039062 3.660156 -0.0585938 3.660156 -0.0585938 C 3.660156 -0.0585938 30.78125 -0.0585938 30.78125 -0.0585938 L 30.78125 -9.480469 C 25.558594 -9.480469 20.28125 -9.421875 15.058594 -9.421875 C 20.761719 -16.679688 31.320312 -26.039062 31.320312 -41.460938 C 31.320312 -54.539062 26.460938 -63.121094 17.160156 -63.121094 C 7.921875 -63.121094 3 -55.078125 3 -42 Z M 3 -42 "/></g></g></g><g fill="#458a6b" fill-opacity="1"><g transform="translate(27.839063, 75.000005)"><g><path d="M 3 -42 C 3 -36.898438 4.019531 -26.339844 11.761719 -26.339844 C 13.859375 -26.339844 15.898438 -27.421875 15.898438 -28.980469 C 15.898438 -28.980469 12.421875 -28.441406 12.421875 -41.761719 C 12.421875 -47.28125 13.378906 -53.699219 17.28125 -53.699219 C 21.179688 -53.699219 22.019531 -47.28125 22.019531 -41.761719 C 22.019531 -30.960938 18.480469 -26.699219 15.480469 -23.101562 C 9.78125 -16.261719 3.660156 -12.960938 3.660156 -5.339844 C 3.660156 2.039062 3.660156 -0.0585938 3.660156 -0.0585938 C 3.660156 -0.0585938 30.78125 -0.0585938 30.78125 -0.0585938 L 30.78125 -9.480469 C 25.558594 -9.480469 20.28125 -9.421875 15.058594 -9.421875 C 20.761719 -16.679688 31.320312 -26.039062 31.320312 -41.460938 C 31.320312 -54.539062 26.460938 -63.121094 17.160156 -63.121094 C 7.921875 -63.121094 3 -55.078125 3 -42 Z M 3 -42 "/></g></g></g></svg>