<svg xmlns="http://www.w3.org/2000/svg" xmlns:xlink="http://www.w3.org/1999/xlink" width="120" zoomAndPan="magnify" viewBox="0 0 90 89.999999" height="120" preserveAspectRatio="xMidYMid meet" version="1.0"><defs><g/></defs><g fill="#458a6b" fill-opacity="0.4"><g transform="translate(29.951652, 77.651664)"><g><path d="M 11.699219 -36.78125 C 13.800781 -36.78125 15.839844 -37.558594 15.839844 -38.761719 C 15.839844 -38.761719 12.78125 -38.460938 12.78125 -47.039062 C 12.78125 -51.480469 14.039062 -56.28125 17.460938 -56.28125 C 20.820312 -56.28125 21.839844 -51.480469 21.839844 -47.039062 C 21.839844 -42.121094 20.820312 -34.800781 15.78125 -34.800781 L 15.78125 -31.441406 C 20.941406 -31.441406 22.980469 -25.621094 23.039062 -18.71875 C 23.101562 -13.558594 21.480469 -8.339844 17.820312 -8.339844 C 14.101562 -8.339844 12.359375 -13.320312 12.359375 -18.480469 C 12.359375 -27 15.839844 -27.359375 15.839844 -27.359375 C 15.839844 -28.679688 13.800781 -29.640625 11.699219 -29.640625 C 4.019531 -29.640625 3 -21.71875 3 -17.21875 C 3 -5.21875 8.398438 0.601562 17.640625 0.601562 C 27.300781 0.601562 32.398438 -6.960938 32.398438 -17.941406 C 32.398438 -29.519531 26.519531 -32.878906 26.519531 -32.878906 C 27.660156 -34.261719 31.679688 -37.679688 31.679688 -46.980469 C 31.679688 -56.699219 26.398438 -63.058594 17.039062 -63.058594 C 9.058594 -63.058594 3 -58.078125 3 -48.179688 C 3 -43.980469 4.019531 -36.78125 11.699219 -36.78125 Z M 11.699219 -36.78125 "/></g></g></g><g fill="#458a6b" fill-opacity="1"><g transform="translate(27.300001, 75.000013)"><g><path d="M 11.699219 -36.78125 C 13.800781 -36.78125 15.839844 -37.558594 15.839844 -38.761719 C 15.839844 -38.761719 12.78125 -38.460938 12.78125 -47.039062 C 12.78125 -51.480469 14.039062 -56.28125 17.460938 -56.28125 C 20.820312 -56.28125 21.839844 -51.480469 21.839844 -47.039062 C 21.839844 -42.121094 20.820312 -34.800781 15.78125 -34.800781 L 15.78125 -31.441406 C 20.941406 -31.441406 22.980469 -25.621094 23.039062 -18.71875 C 23.101562 -13.558594 21.480469 -8.339844 17.820312 -8.339844 C 14.101562 -8.339844 12.359375 -13.320312 12.359375 -18.480469 C 12.359375 -27 15.839844 -27.359375 15.839844 -27.359375 C 15.839844 -28.679688 13.800781 -29.640625 11.699219 -29.640625 C 4.019531 -29.640625 3 -21.71875 3 -17.21875 C 3 -5.21875 8.398438 0.601562 17.640625 0.601562 C 27.300781 0.601562 32.398438 -6.960938 32.398438 -17.941406 C 32.398438 -29.519531 26.519531 -32.878906 26.519531 -32.878906 C 27.660156 -34.261719 31.679688 -37.679688 31.679688 -46.980469 C 31.679688 -56.699219 26.398438 -63.058594 17.039062 -63.058594 C 9.058594 -63.058594 3 -58.078125 3 -48.179688 C 3 -43.980469 4.019531 -36.78125 11.699219 -36.78125 Z M 11.699219 -36.78125 "/></g></g></g></svg>