<svg xmlns="http://www.w3.org/2000/svg" xmlns:xlink="http://www.w3.org/1999/xlink" width="120" zoomAndPan="magnify" viewBox="0 0 90 89.999999" height="120" preserveAspectRatio="xMidYMid meet" version="1.0"><defs><g/></defs><g fill="#458a6b" fill-opacity="0.4"><g transform="translate(29.768837, 77.651649)"><g><path d="M 19.320312 -9.960938 L 19.320312 0 L 29.101562 0 L 29.101562 -9.960938 L 32.761719 -9.960938 L 32.761719 -19.679688 L 29.101562 -19.679688 L 29.101562 -50.101562 L 19.320312 -50.101562 L 19.320312 -19.679688 L 12.121094 -19.679688 L 18.960938 -62.519531 L 8.941406 -62.519531 L 2.101562 -18.480469 L 2.101562 -9.960938 Z M 19.320312 -9.960938 "/></g></g></g><g fill="#458a6b" fill-opacity="1"><g transform="translate(27.117187, 74.999998)"><g><path d="M 19.320312 -9.960938 L 19.320312 0 L 29.101562 0 L 29.101562 -9.960938 L 32.761719 -9.960938 L 32.761719 -19.679688 L 29.101562 -19.679688 L 29.101562 -50.101562 L 19.320312 -50.101562 L 19.320312 -19.679688 L 12.121094 -19.679688 L 18.960938 -62.519531 L 8.941406 -62.519531 L 2.101562 -18.480469 L 2.101562 -9.960938 Z M 19.320312 -9.960938 "/></g></g></g></svg>