<svg xmlns="http://www.w3.org/2000/svg" xmlns:xlink="http://www.w3.org/1999/xlink" width="120" zoomAndPan="magnify" viewBox="0 0 90 89.999999" height="120" preserveAspectRatio="xMidYMid meet" version="1.0"><defs><g/></defs><g fill="#458a6b" fill-opacity="0.4"><g transform="translate(30.190713, 77.651649)"><g><path d="M 17.398438 0.601562 C 26.699219 0.601562 31.921875 -7.980469 31.921875 -23.578125 C 31.921875 -38.21875 28.859375 -48.839844 15 -48.839844 L 15 -53.878906 L 30.300781 -53.878906 L 30.300781 -62.519531 L 5.339844 -62.519531 L 5.339844 -38.519531 C 7.378906 -39.660156 9.78125 -40.441406 12.179688 -40.441406 C 21.839844 -40.441406 22.261719 -32.578125 22.261719 -23.28125 C 22.261719 -15.300781 21.421875 -8.101562 17.519531 -8.101562 C 13.621094 -8.101562 12.660156 -15.238281 12.660156 -20.761719 C 12.660156 -34.078125 16.078125 -33.539062 16.078125 -33.539062 C 16.078125 -35.101562 13.800781 -36.179688 11.699219 -36.179688 C 4.019531 -36.121094 3 -26.339844 3 -20.519531 C 3 -7.441406 8.160156 0.601562 17.398438 0.601562 Z M 17.398438 0.601562 "/></g></g></g><g fill="#458a6b" fill-opacity="1"><g transform="translate(27.539062, 74.999998)"><g><path d="M 17.398438 0.601562 C 26.699219 0.601562 31.921875 -7.980469 31.921875 -23.578125 C 31.921875 -38.21875 28.859375 -48.839844 15 -48.839844 L 15 -53.878906 L 30.300781 -53.878906 L 30.300781 -62.519531 L 5.339844 -62.519531 L 5.339844 -38.519531 C 7.378906 -39.660156 9.78125 -40.441406 12.179688 -40.441406 C 21.839844 -40.441406 22.261719 -32.578125 22.261719 -23.28125 C 22.261719 -15.300781 21.421875 -8.101562 17.519531 -8.101562 C 13.621094 -8.101562 12.660156 -15.238281 12.660156 -20.761719 C 12.660156 -34.078125 16.078125 -33.539062 16.078125 -33.539062 C 16.078125 -35.101562 13.800781 -36.179688 11.699219 -36.179688 C 4.019531 -36.121094 3 -26.339844 3 -20.519531 C 3 -7.441406 8.160156 0.601562 17.398438 0.601562 Z M 17.398438 0.601562 "/></g></g></g></svg>