<svg xmlns="http://www.w3.org/2000/svg" xmlns:xlink="http://www.w3.org/1999/xlink" width="360" zoomAndPan="magnify" viewBox="0 0 270 135.000003" height="180" preserveAspectRatio="xMidYMid meet" version="1.0"><defs><g/></defs><g fill="#458a6b" fill-opacity="0.4"><g transform="translate(3.085673, 85.454189)"><g><path d="M 21.933594 0 L 21.933594 -8.320312 C 18.152344 -6.617188 16.308594 -6.804688 11.863281 -6.804688 L 10.585938 -6.804688 C 10.585938 -6.804688 10.585938 -33.984375 10.585938 -36.441406 C 10.585938 -38.902344 10.304688 -47.789062 11.816406 -49.253906 L 1.417969 -49.253906 C 2.929688 -47.789062 2.648438 -38.902344 2.648438 -36.441406 L 2.648438 -12.808594 C 2.648438 -10.351562 2.929688 -1.464844 1.417969 0 Z M 21.933594 0 "/></g></g></g><g fill="#458a6b" fill-opacity="0.4"><g transform="translate(25.962475, 85.454189)"><g><path d="M 8.367188 0.472656 C 12.480469 0.519531 14.746094 -4.160156 14.746094 -4.160156 L 14.746094 0 L 23.679688 0 C 22.214844 -1.464844 22.5 -10.351562 22.5 -12.808594 C 22.5 -15.265625 22.453125 -23.304688 22.453125 -23.304688 C 22.453125 -29.449219 20.515625 -35.921875 12.054688 -35.921875 C 5.292969 -35.921875 2.078125 -31.90625 2.078125 -27.558594 C 2.078125 -24.105469 3.96875 -21.363281 7.800781 -21.363281 C 10.871094 -21.363281 11.535156 -23.585938 11.535156 -24.296875 C 10.304688 -24.296875 9.359375 -25.144531 9.359375 -26.660156 C 9.359375 -28.125 10.539062 -29.117188 12.007812 -29.117188 C 14.039062 -29.117188 14.746094 -27.605469 14.746094 -26.328125 C 14.746094 -17.582031 1.417969 -20.9375 1.417969 -7.703125 C 1.417969 -3.023438 4.347656 0.472656 8.367188 0.472656 Z M 14.652344 -15.410156 L 14.652344 -9.925781 C 14.652344 -7.847656 13.898438 -6.332031 12.382812 -6.332031 C 10.777344 -6.332031 10.019531 -7.65625 10.019531 -9.3125 C 10.019531 -12.714844 12.953125 -14.132812 14.652344 -15.410156 Z M 14.652344 -15.410156 "/></g></g></g><g fill="#458a6b" fill-opacity="0.4"><g transform="translate(50.588124, 85.454189)"><g><path d="M 10.019531 0 L 10.019531 -1.65625 C 11.296875 -0.140625 13.707031 0.472656 15.265625 0.472656 C 18.71875 0.472656 22.734375 -2.175781 22.734375 -11.15625 L 22.734375 -24.25 C 22.734375 -32.425781 19.804688 -35.921875 14.699219 -35.921875 C 13.1875 -35.921875 11.109375 -35.355469 10.066406 -34.03125 L 10.066406 -36.441406 C 10.066406 -38.902344 9.785156 -47.789062 11.296875 -49.253906 L 1.132812 -49.253906 C 2.601562 -47.789062 2.363281 -38.902344 2.363281 -36.441406 L 2.175781 -12.808594 C 2.175781 -10.351562 2.457031 -1.464844 0.945312 0 Z M 10.113281 -25.996094 C 10.164062 -28.21875 11.296875 -29.117188 12.480469 -29.117188 C 13.660156 -29.117188 14.792969 -28.21875 14.84375 -25.996094 C 14.84375 -20.464844 14.84375 -14.984375 14.84375 -9.453125 C 14.792969 -7.230469 13.660156 -6.332031 12.480469 -6.332031 C 11.296875 -6.332031 10.164062 -7.230469 10.113281 -9.453125 C 10.113281 -14.984375 10.113281 -20.464844 10.113281 -25.996094 Z M 10.113281 -25.996094 "/></g></g></g><g fill="#458a6b" fill-opacity="0.4"><g transform="translate(75.213769, 85.454189)"><g><path d="M 1.65625 -10.164062 C 1.65625 -5.625 3.261719 0.472656 11.957031 0.472656 C 20.84375 0.472656 22.121094 -6.285156 22.121094 -10.164062 L 22.121094 -24.578125 C 22.121094 -29.164062 20.84375 -35.921875 11.957031 -35.921875 C 3.261719 -35.921875 1.65625 -29.824219 1.65625 -25.289062 Z M 9.5 -25.996094 C 9.59375 -28.21875 10.683594 -29.117188 11.863281 -29.117188 C 13.046875 -29.117188 14.179688 -28.21875 14.226562 -25.996094 C 14.226562 -20.464844 14.226562 -14.984375 14.226562 -9.453125 C 14.179688 -7.230469 13.046875 -6.332031 11.863281 -6.332031 C 10.683594 -6.332031 9.59375 -7.230469 9.5 -9.453125 C 9.5 -14.984375 9.5 -20.464844 9.5 -25.996094 Z M 9.5 -25.996094 "/></g></g></g><g fill="#458a6b" fill-opacity="0.4"><g transform="translate(98.98863, 85.454189)"><g><path d="M 11.203125 0 C 9.691406 -1.464844 9.972656 -10.351562 9.972656 -12.808594 L 9.972656 -18.574219 C 10.019531 -25.050781 10.445312 -29.117188 13.566406 -29.117188 C 14.746094 -29.117188 15.882812 -28.03125 15.882812 -25.667969 C 15.882812 -21.175781 13.613281 -21.742188 13.613281 -21.742188 C 13.613281 -19.238281 15.644531 -17.488281 17.820312 -17.488281 C 20.515625 -17.488281 23.492188 -20.089844 23.492188 -26.941406 C 23.492188 -31.339844 21.269531 -35.921875 16.449219 -35.921875 C 12.621094 -35.921875 10.683594 -32.851562 9.972656 -29.96875 L 9.972656 -35.449219 L 0.945312 -35.449219 C 2.457031 -33.984375 2.175781 -25.097656 2.175781 -22.640625 L 2.175781 -12.808594 C 2.175781 -10.351562 2.457031 -1.464844 0.945312 0 Z M 11.203125 0 "/></g></g></g><g fill="#458a6b" fill-opacity="0.4"><g transform="translate(123.661545, 85.454189)"><g><path d="M 8.367188 0.472656 C 12.480469 0.519531 14.746094 -4.160156 14.746094 -4.160156 L 14.746094 0 L 23.679688 0 C 22.214844 -1.464844 22.5 -10.351562 22.5 -12.808594 C 22.5 -15.265625 22.453125 -23.304688 22.453125 -23.304688 C 22.453125 -29.449219 20.515625 -35.921875 12.054688 -35.921875 C 5.292969 -35.921875 2.078125 -31.90625 2.078125 -27.558594 C 2.078125 -24.105469 3.96875 -21.363281 7.800781 -21.363281 C 10.871094 -21.363281 11.535156 -23.585938 11.535156 -24.296875 C 10.304688 -24.296875 9.359375 -25.144531 9.359375 -26.660156 C 9.359375 -28.125 10.539062 -29.117188 12.007812 -29.117188 C 14.039062 -29.117188 14.746094 -27.605469 14.746094 -26.328125 C 14.746094 -17.582031 1.417969 -20.9375 1.417969 -7.703125 C 1.417969 -3.023438 4.347656 0.472656 8.367188 0.472656 Z M 14.652344 -15.410156 L 14.652344 -9.925781 C 14.652344 -7.847656 13.898438 -6.332031 12.382812 -6.332031 C 10.777344 -6.332031 10.019531 -7.65625 10.019531 -9.3125 C 10.019531 -12.714844 12.953125 -14.132812 14.652344 -15.410156 Z M 14.652344 -15.410156 "/></g></g></g><g fill="#458a6b" fill-opacity="0.4"><g transform="translate(148.287202, 85.454189)"><g><path d="M 3.121094 -27.933594 L 3.121094 -9.546875 C 3.121094 0 8.933594 0 14.085938 0 L 14.085938 -8.273438 C 12.808594 -8.082031 10.871094 -7.230469 10.871094 -11.816406 L 10.871094 -27.933594 L 12.953125 -27.933594 L 12.953125 -35.449219 L 10.871094 -35.449219 L 10.871094 -43.582031 L 9.40625 -43.582031 C 9.40625 -43.582031 8.128906 -40.839844 5.910156 -38.570312 C 3.449219 -36.066406 0.992188 -35.449219 0.945312 -35.449219 L 0.945312 -27.933594 Z M 3.121094 -27.933594 "/></g></g></g><g fill="#458a6b" fill-opacity="0.4"><g transform="translate(162.845175, 85.454189)"><g><path d="M 1.65625 -10.164062 C 1.65625 -5.625 3.261719 0.472656 11.957031 0.472656 C 20.84375 0.472656 22.121094 -6.285156 22.121094 -10.164062 L 22.121094 -24.578125 C 22.121094 -29.164062 20.84375 -35.921875 11.957031 -35.921875 C 3.261719 -35.921875 1.65625 -29.824219 1.65625 -25.289062 Z M 9.5 -25.996094 C 9.59375 -28.21875 10.683594 -29.117188 11.863281 -29.117188 C 13.046875 -29.117188 14.179688 -28.21875 14.226562 -25.996094 C 14.226562 -20.464844 14.226562 -14.984375 14.226562 -9.453125 C 14.179688 -7.230469 13.046875 -6.332031 11.863281 -6.332031 C 10.683594 -6.332031 9.59375 -7.230469 9.5 -9.453125 C 9.5 -14.984375 9.5 -20.464844 9.5 -25.996094 Z M 9.5 -25.996094 "/></g></g></g><g fill="#458a6b" fill-opacity="0.4"><g transform="translate(186.620028, 85.454189)"><g><path d="M 11.203125 0 C 9.691406 -1.464844 9.972656 -10.351562 9.972656 -12.808594 L 9.972656 -18.574219 C 10.019531 -25.050781 10.445312 -29.117188 13.566406 -29.117188 C 14.746094 -29.117188 15.882812 -28.03125 15.882812 -25.667969 C 15.882812 -21.175781 13.613281 -21.742188 13.613281 -21.742188 C 13.613281 -19.238281 15.644531 -17.488281 17.820312 -17.488281 C 20.515625 -17.488281 23.492188 -20.089844 23.492188 -26.941406 C 23.492188 -31.339844 21.269531 -35.921875 16.449219 -35.921875 C 12.621094 -35.921875 10.683594 -32.851562 9.972656 -29.96875 L 9.972656 -35.449219 L 0.945312 -35.449219 C 2.457031 -33.984375 2.175781 -25.097656 2.175781 -22.640625 L 2.175781 -12.808594 C 2.175781 -10.351562 2.457031 -1.464844 0.945312 0 Z M 11.203125 0 "/></g></g></g><g fill="#458a6b" fill-opacity="0.4"><g transform="translate(211.292951, 85.454189)"><g><path d="M 11.203125 0 C 9.738281 -1.464844 9.972656 -10.351562 9.972656 -12.808594 L 9.972656 -35.449219 L 0.945312 -35.449219 C 2.457031 -33.984375 2.175781 -25.097656 2.175781 -22.640625 L 2.175781 -12.808594 C 2.175781 -10.351562 2.457031 -1.464844 0.945312 0 Z M 0.945312 -41.878906 C 0.945312 -38.949219 2.882812 -37.011719 5.859375 -37.011719 C 8.792969 -37.011719 10.730469 -38.949219 10.730469 -41.878906 C 10.730469 -44.855469 8.792969 -46.792969 5.859375 -46.792969 C 2.882812 -46.792969 0.945312 -44.855469 0.945312 -41.878906 Z M 0.945312 -41.878906 "/></g></g></g><g fill="#458a6b" fill-opacity="0.4"><g transform="translate(223.440346, 85.454189)"><g><path d="M 1.65625 -10.164062 C 1.65625 -5.625 3.261719 0.472656 11.957031 0.472656 C 20.84375 0.472656 22.121094 -6.285156 22.121094 -10.164062 L 22.121094 -24.578125 C 22.121094 -29.164062 20.84375 -35.921875 11.957031 -35.921875 C 3.261719 -35.921875 1.65625 -29.824219 1.65625 -25.289062 Z M 9.5 -25.996094 C 9.59375 -28.21875 10.683594 -29.117188 11.863281 -29.117188 C 13.046875 -29.117188 14.179688 -28.21875 14.226562 -25.996094 C 14.226562 -20.464844 14.226562 -14.984375 14.226562 -9.453125 C 14.179688 -7.230469 13.046875 -6.332031 11.863281 -6.332031 C 10.683594 -6.332031 9.59375 -7.230469 9.5 -9.453125 C 9.5 -14.984375 9.5 -20.464844 9.5 -25.996094 Z M 9.5 -25.996094 "/></g></g></g><g fill="#458a6b" fill-opacity="0.4"><g transform="translate(247.215199, 85.454189)"><g><path d="M 10.964844 0.472656 C 16.308594 0.472656 21.035156 -2.976562 21.035156 -9.265625 C 21.035156 -20.042969 9.027344 -22.40625 9.167969 -27.226562 C 9.21875 -28.976562 10.777344 -29.542969 12.242188 -29.542969 C 14.511719 -29.542969 16.734375 -28.976562 18.859375 -27.699219 L 18.859375 -35.875 C 14.9375 -35.449219 13.707031 -35.921875 10.351562 -35.921875 C 4.773438 -35.921875 1.371094 -31.761719 1.371094 -27.179688 C 1.371094 -18.292969 13.707031 -16.734375 13.707031 -10.066406 C 13.707031 -7.609375 12.574219 -6.285156 10.871094 -6.285156 C 9.40625 -6.285156 8.222656 -7.328125 8.222656 -8.792969 C 8.222656 -10.257812 9.167969 -11.15625 10.398438 -11.15625 C 10.398438 -11.863281 9.738281 -14.085938 6.664062 -14.085938 C 2.835938 -14.085938 0.945312 -11.34375 0.945312 -7.847656 C 0.945312 -3.546875 4.207031 0.472656 10.964844 0.472656 Z M 10.964844 0.472656 "/></g></g></g><g fill="#458a6b" fill-opacity="1"><g transform="translate(0.996713, 83.365228)"><g><path d="M 21.933594 0 L 21.933594 -8.320312 C 18.152344 -6.617188 16.308594 -6.804688 11.863281 -6.804688 L 10.585938 -6.804688 C 10.585938 -6.804688 10.585938 -33.984375 10.585938 -36.441406 C 10.585938 -38.902344 10.304688 -47.789062 11.816406 -49.253906 L 1.417969 -49.253906 C 2.929688 -47.789062 2.648438 -38.902344 2.648438 -36.441406 L 2.648438 -12.808594 C 2.648438 -10.351562 2.929688 -1.464844 1.417969 0 Z M 21.933594 0 "/></g></g></g><g fill="#458a6b" fill-opacity="1"><g transform="translate(23.873515, 83.365228)"><g><path d="M 8.367188 0.472656 C 12.480469 0.519531 14.746094 -4.160156 14.746094 -4.160156 L 14.746094 0 L 23.679688 0 C 22.214844 -1.464844 22.5 -10.351562 22.5 -12.808594 C 22.5 -15.265625 22.453125 -23.304688 22.453125 -23.304688 C 22.453125 -29.449219 20.515625 -35.921875 12.054688 -35.921875 C 5.292969 -35.921875 2.078125 -31.90625 2.078125 -27.558594 C 2.078125 -24.105469 3.96875 -21.363281 7.800781 -21.363281 C 10.871094 -21.363281 11.535156 -23.585938 11.535156 -24.296875 C 10.304688 -24.296875 9.359375 -25.144531 9.359375 -26.660156 C 9.359375 -28.125 10.539062 -29.117188 12.007812 -29.117188 C 14.039062 -29.117188 14.746094 -27.605469 14.746094 -26.328125 C 14.746094 -17.582031 1.417969 -20.9375 1.417969 -7.703125 C 1.417969 -3.023438 4.347656 0.472656 8.367188 0.472656 Z M 14.652344 -15.410156 L 14.652344 -9.925781 C 14.652344 -7.847656 13.898438 -6.332031 12.382812 -6.332031 C 10.777344 -6.332031 10.019531 -7.65625 10.019531 -9.3125 C 10.019531 -12.714844 12.953125 -14.132812 14.652344 -15.410156 Z M 14.652344 -15.410156 "/></g></g></g><g fill="#458a6b" fill-opacity="1"><g transform="translate(48.499164, 83.365228)"><g><path d="M 10.019531 0 L 10.019531 -1.65625 C 11.296875 -0.140625 13.707031 0.472656 15.265625 0.472656 C 18.71875 0.472656 22.734375 -2.175781 22.734375 -11.15625 L 22.734375 -24.25 C 22.734375 -32.425781 19.804688 -35.921875 14.699219 -35.921875 C 13.1875 -35.921875 11.109375 -35.355469 10.066406 -34.03125 L 10.066406 -36.441406 C 10.066406 -38.902344 9.785156 -47.789062 11.296875 -49.253906 L 1.132812 -49.253906 C 2.601562 -47.789062 2.363281 -38.902344 2.363281 -36.441406 L 2.175781 -12.808594 C 2.175781 -10.351562 2.457031 -1.464844 0.945312 0 Z M 10.113281 -25.996094 C 10.164062 -28.21875 11.296875 -29.117188 12.480469 -29.117188 C 13.660156 -29.117188 14.792969 -28.21875 14.84375 -25.996094 C 14.84375 -20.464844 14.84375 -14.984375 14.84375 -9.453125 C 14.792969 -7.230469 13.660156 -6.332031 12.480469 -6.332031 C 11.296875 -6.332031 10.164062 -7.230469 10.113281 -9.453125 C 10.113281 -14.984375 10.113281 -20.464844 10.113281 -25.996094 Z M 10.113281 -25.996094 "/></g></g></g><g fill="#458a6b" fill-opacity="1"><g transform="translate(73.124809, 83.365228)"><g><path d="M 1.65625 -10.164062 C 1.65625 -5.625 3.261719 0.472656 11.957031 0.472656 C 20.84375 0.472656 22.121094 -6.285156 22.121094 -10.164062 L 22.121094 -24.578125 C 22.121094 -29.164062 20.84375 -35.921875 11.957031 -35.921875 C 3.261719 -35.921875 1.65625 -29.824219 1.65625 -25.289062 Z M 9.5 -25.996094 C 9.59375 -28.21875 10.683594 -29.117188 11.863281 -29.117188 C 13.046875 -29.117188 14.179688 -28.21875 14.226562 -25.996094 C 14.226562 -20.464844 14.226562 -14.984375 14.226562 -9.453125 C 14.179688 -7.230469 13.046875 -6.332031 11.863281 -6.332031 C 10.683594 -6.332031 9.59375 -7.230469 9.5 -9.453125 C 9.5 -14.984375 9.5 -20.464844 9.5 -25.996094 Z M 9.5 -25.996094 "/></g></g></g><g fill="#458a6b" fill-opacity="1"><g transform="translate(96.89967, 83.365228)"><g><path d="M 11.203125 0 C 9.691406 -1.464844 9.972656 -10.351562 9.972656 -12.808594 L 9.972656 -18.574219 C 10.019531 -25.050781 10.445312 -29.117188 13.566406 -29.117188 C 14.746094 -29.117188 15.882812 -28.03125 15.882812 -25.667969 C 15.882812 -21.175781 13.613281 -21.742188 13.613281 -21.742188 C 13.613281 -19.238281 15.644531 -17.488281 17.820312 -17.488281 C 20.515625 -17.488281 23.492188 -20.089844 23.492188 -26.941406 C 23.492188 -31.339844 21.269531 -35.921875 16.449219 -35.921875 C 12.621094 -35.921875 10.683594 -32.851562 9.972656 -29.96875 L 9.972656 -35.449219 L 0.945312 -35.449219 C 2.457031 -33.984375 2.175781 -25.097656 2.175781 -22.640625 L 2.175781 -12.808594 C 2.175781 -10.351562 2.457031 -1.464844 0.945312 0 Z M 11.203125 0 "/></g></g></g><g fill="#458a6b" fill-opacity="1"><g transform="translate(121.572585, 83.365228)"><g><path d="M 8.367188 0.472656 C 12.480469 0.519531 14.746094 -4.160156 14.746094 -4.160156 L 14.746094 0 L 23.679688 0 C 22.214844 -1.464844 22.5 -10.351562 22.5 -12.808594 C 22.5 -15.265625 22.453125 -23.304688 22.453125 -23.304688 C 22.453125 -29.449219 20.515625 -35.921875 12.054688 -35.921875 C 5.292969 -35.921875 2.078125 -31.90625 2.078125 -27.558594 C 2.078125 -24.105469 3.96875 -21.363281 7.800781 -21.363281 C 10.871094 -21.363281 11.535156 -23.585938 11.535156 -24.296875 C 10.304688 -24.296875 9.359375 -25.144531 9.359375 -26.660156 C 9.359375 -28.125 10.539062 -29.117188 12.007812 -29.117188 C 14.039062 -29.117188 14.746094 -27.605469 14.746094 -26.328125 C 14.746094 -17.582031 1.417969 -20.9375 1.417969 -7.703125 C 1.417969 -3.023438 4.347656 0.472656 8.367188 0.472656 Z M 14.652344 -15.410156 L 14.652344 -9.925781 C 14.652344 -7.847656 13.898438 -6.332031 12.382812 -6.332031 C 10.777344 -6.332031 10.019531 -7.65625 10.019531 -9.3125 C 10.019531 -12.714844 12.953125 -14.132812 14.652344 -15.410156 Z M 14.652344 -15.410156 "/></g></g></g><g fill="#458a6b" fill-opacity="1"><g transform="translate(146.198242, 83.365228)"><g><path d="M 3.121094 -27.933594 L 3.121094 -9.546875 C 3.121094 0 8.933594 0 14.085938 0 L 14.085938 -8.273438 C 12.808594 -8.082031 10.871094 -7.230469 10.871094 -11.816406 L 10.871094 -27.933594 L 12.953125 -27.933594 L 12.953125 -35.449219 L 10.871094 -35.449219 L 10.871094 -43.582031 L 9.40625 -43.582031 C 9.40625 -43.582031 8.128906 -40.839844 5.910156 -38.570312 C 3.449219 -36.066406 0.992188 -35.449219 0.945312 -35.449219 L 0.945312 -27.933594 Z M 3.121094 -27.933594 "/></g></g></g><g fill="#458a6b" fill-opacity="1"><g transform="translate(160.756215, 83.365228)"><g><path d="M 1.65625 -10.164062 C 1.65625 -5.625 3.261719 0.472656 11.957031 0.472656 C 20.84375 0.472656 22.121094 -6.285156 22.121094 -10.164062 L 22.121094 -24.578125 C 22.121094 -29.164062 20.84375 -35.921875 11.957031 -35.921875 C 3.261719 -35.921875 1.65625 -29.824219 1.65625 -25.289062 Z M 9.5 -25.996094 C 9.59375 -28.21875 10.683594 -29.117188 11.863281 -29.117188 C 13.046875 -29.117188 14.179688 -28.21875 14.226562 -25.996094 C 14.226562 -20.464844 14.226562 -14.984375 14.226562 -9.453125 C 14.179688 -7.230469 13.046875 -6.332031 11.863281 -6.332031 C 10.683594 -6.332031 9.59375 -7.230469 9.5 -9.453125 C 9.5 -14.984375 9.5 -20.464844 9.5 -25.996094 Z M 9.5 -25.996094 "/></g></g></g><g fill="#458a6b" fill-opacity="1"><g transform="translate(184.531068, 83.365228)"><g><path d="M 11.203125 0 C 9.691406 -1.464844 9.972656 -10.351562 9.972656 -12.808594 L 9.972656 -18.574219 C 10.019531 -25.050781 10.445312 -29.117188 13.566406 -29.117188 C 14.746094 -29.117188 15.882812 -28.03125 15.882812 -25.667969 C 15.882812 -21.175781 13.613281 -21.742188 13.613281 -21.742188 C 13.613281 -19.238281 15.644531 -17.488281 17.820312 -17.488281 C 20.515625 -17.488281 23.492188 -20.089844 23.492188 -26.941406 C 23.492188 -31.339844 21.269531 -35.921875 16.449219 -35.921875 C 12.621094 -35.921875 10.683594 -32.851562 9.972656 -29.96875 L 9.972656 -35.449219 L 0.945312 -35.449219 C 2.457031 -33.984375 2.175781 -25.097656 2.175781 -22.640625 L 2.175781 -12.808594 C 2.175781 -10.351562 2.457031 -1.464844 0.945312 0 Z M 11.203125 0 "/></g></g></g><g fill="#458a6b" fill-opacity="1"><g transform="translate(209.203991, 83.365228)"><g><path d="M 11.203125 0 C 9.738281 -1.464844 9.972656 -10.351562 9.972656 -12.808594 L 9.972656 -35.449219 L 0.945312 -35.449219 C 2.457031 -33.984375 2.175781 -25.097656 2.175781 -22.640625 L 2.175781 -12.808594 C 2.175781 -10.351562 2.457031 -1.464844 0.945312 0 Z M 0.945312 -41.878906 C 0.945312 -38.949219 2.882812 -37.011719 5.859375 -37.011719 C 8.792969 -37.011719 10.730469 -38.949219 10.730469 -41.878906 C 10.730469 -44.855469 8.792969 -46.792969 5.859375 -46.792969 C 2.882812 -46.792969 0.945312 -44.855469 0.945312 -41.878906 Z M 0.945312 -41.878906 "/></g></g></g><g fill="#458a6b" fill-opacity="1"><g transform="translate(221.351386, 83.365228)"><g><path d="M 1.65625 -10.164062 C 1.65625 -5.625 3.261719 0.472656 11.957031 0.472656 C 20.84375 0.472656 22.121094 -6.285156 22.121094 -10.164062 L 22.121094 -24.578125 C 22.121094 -29.164062 20.84375 -35.921875 11.957031 -35.921875 C 3.261719 -35.921875 1.65625 -29.824219 1.65625 -25.289062 Z M 9.5 -25.996094 C 9.59375 -28.21875 10.683594 -29.117188 11.863281 -29.117188 C 13.046875 -29.117188 14.179688 -28.21875 14.226562 -25.996094 C 14.226562 -20.464844 14.226562 -14.984375 14.226562 -9.453125 C 14.179688 -7.230469 13.046875 -6.332031 11.863281 -6.332031 C 10.683594 -6.332031 9.59375 -7.230469 9.5 -9.453125 C 9.5 -14.984375 9.5 -20.464844 9.5 -25.996094 Z M 9.5 -25.996094 "/></g></g></g><g fill="#458a6b" fill-opacity="1"><g transform="translate(245.126239, 83.365228)"><g><path d="M 10.964844 0.472656 C 16.308594 0.472656 21.035156 -2.976562 21.035156 -9.265625 C 21.035156 -20.042969 9.027344 -22.40625 9.167969 -27.226562 C 9.21875 -28.976562 10.777344 -29.542969 12.242188 -29.542969 C 14.511719 -29.542969 16.734375 -28.976562 18.859375 -27.699219 L 18.859375 -35.875 C 14.9375 -35.449219 13.707031 -35.921875 10.351562 -35.921875 C 4.773438 -35.921875 1.371094 -31.761719 1.371094 -27.179688 C 1.371094 -18.292969 13.707031 -16.734375 13.707031 -10.066406 C 13.707031 -7.609375 12.574219 -6.285156 10.871094 -6.285156 C 9.40625 -6.285156 8.222656 -7.328125 8.222656 -8.792969 C 8.222656 -10.257812 9.167969 -11.15625 10.398438 -11.15625 C 10.398438 -11.863281 9.738281 -14.085938 6.664062 -14.085938 C 2.835938 -14.085938 0.945312 -11.34375 0.945312 -7.847656 C 0.945312 -3.546875 4.207031 0.472656 10.964844 0.472656 Z M 10.964844 0.472656 "/></g></g></g></svg>