<svg xmlns="http://www.w3.org/2000/svg" xmlns:xlink="http://www.w3.org/1999/xlink" width="1920" zoomAndPan="magnify" viewBox="0 0 1440 809.999993" height="1080" preserveAspectRatio="xMidYMid meet" version="1.0"><defs><g/></defs><g fill="#458a6b" fill-opacity="0.4"><g transform="translate(25.982575, 504.743733)"><g><path d="M 116.644531 0 L 116.644531 -44.246094 C 96.53125 -35.195312 86.730469 -36.199219 63.097656 -36.199219 L 56.3125 -36.199219 C 56.3125 -36.199219 56.3125 -180.746094 56.3125 -193.820312 C 56.3125 -206.890625 54.800781 -254.152344 62.847656 -261.945312 L 7.542969 -261.945312 C 15.585938 -254.152344 14.078125 -206.890625 14.078125 -193.820312 L 14.078125 -68.125 C 14.078125 -55.054688 15.585938 -7.792969 7.542969 0 Z M 116.644531 0 "/></g></g></g><g fill="#458a6b" fill-opacity="0.4"><g transform="translate(147.651222, 504.743733)"><g><path d="M 44.496094 2.515625 C 66.367188 2.765625 78.433594 -22.121094 78.433594 -22.121094 L 78.433594 0 L 125.945312 0 C 118.152344 -7.792969 119.660156 -55.054688 119.660156 -68.125 C 119.660156 -81.199219 119.410156 -123.933594 119.410156 -123.933594 C 119.410156 -156.613281 109.101562 -191.054688 64.105469 -191.054688 C 28.15625 -191.054688 11.0625 -169.6875 11.0625 -146.558594 C 11.0625 -128.207031 21.117188 -113.628906 41.480469 -113.628906 C 57.820312 -113.628906 61.339844 -125.441406 61.339844 -129.214844 C 54.800781 -129.214844 49.773438 -133.738281 49.773438 -141.78125 C 49.773438 -149.574219 56.058594 -154.855469 63.851562 -154.855469 C 74.660156 -154.855469 78.433594 -146.808594 78.433594 -140.023438 C 78.433594 -93.515625 7.542969 -111.363281 7.542969 -40.976562 C 7.542969 -16.089844 23.128906 2.515625 44.496094 2.515625 Z M 77.929688 -81.953125 L 77.929688 -52.792969 C 77.929688 -41.730469 73.90625 -33.6875 65.863281 -33.6875 C 57.316406 -33.6875 53.292969 -40.726562 53.292969 -49.523438 C 53.292969 -67.625 68.878906 -75.164062 77.929688 -81.953125 Z M 77.929688 -81.953125 "/></g></g></g><g fill="#458a6b" fill-opacity="0.4"><g transform="translate(278.620985, 504.743733)"><g><path d="M 53.292969 0 L 53.292969 -8.796875 C 60.082031 -0.753906 72.902344 2.515625 81.199219 2.515625 C 99.550781 2.515625 120.917969 -11.5625 120.917969 -59.328125 L 120.917969 -128.960938 C 120.917969 -172.453125 105.332031 -191.054688 78.179688 -191.054688 C 70.136719 -191.054688 59.074219 -188.039062 53.546875 -181 L 53.546875 -193.820312 C 53.546875 -206.890625 52.039062 -254.152344 60.082031 -261.945312 L 6.035156 -261.945312 C 13.828125 -254.152344 12.570312 -206.890625 12.570312 -193.820312 L 11.5625 -68.125 C 11.5625 -55.054688 13.070312 -7.792969 5.027344 0 Z M 53.796875 -138.261719 C 54.046875 -150.078125 60.082031 -154.855469 66.367188 -154.855469 C 72.652344 -154.855469 78.683594 -150.078125 78.9375 -138.261719 C 78.9375 -108.851562 78.9375 -79.691406 78.9375 -50.277344 C 78.683594 -38.460938 72.652344 -33.6875 66.367188 -33.6875 C 60.082031 -33.6875 54.046875 -38.460938 53.796875 -50.277344 C 53.796875 -79.691406 53.796875 -108.851562 53.796875 -138.261719 Z M 53.796875 -138.261719 "/></g></g></g><g fill="#458a6b" fill-opacity="0.4"><g transform="translate(409.590725, 504.743733)"><g><path d="M 8.796875 -54.046875 C 8.796875 -29.914062 17.347656 2.515625 63.601562 2.515625 C 110.863281 2.515625 117.648438 -33.433594 117.648438 -54.046875 L 117.648438 -130.722656 C 117.648438 -155.105469 110.863281 -191.054688 63.601562 -191.054688 C 17.347656 -191.054688 8.796875 -158.625 8.796875 -134.492188 Z M 50.527344 -138.261719 C 51.03125 -150.078125 56.8125 -154.855469 63.097656 -154.855469 C 69.382812 -154.855469 75.417969 -150.078125 75.667969 -138.261719 C 75.667969 -108.851562 75.667969 -79.691406 75.667969 -50.277344 C 75.417969 -38.460938 69.382812 -33.6875 63.097656 -33.6875 C 56.8125 -33.6875 51.03125 -38.460938 50.527344 -50.277344 C 50.527344 -79.691406 50.527344 -108.851562 50.527344 -138.261719 Z M 50.527344 -138.261719 "/></g></g></g><g fill="#458a6b" fill-opacity="0.4"><g transform="translate(536.035633, 504.743733)"><g><path d="M 59.578125 0 C 51.535156 -7.792969 53.042969 -55.054688 53.042969 -68.125 L 53.042969 -98.796875 C 53.292969 -133.234375 55.554688 -154.855469 72.148438 -154.855469 C 78.433594 -154.855469 84.464844 -149.074219 84.464844 -136.503906 C 84.464844 -112.621094 72.398438 -115.636719 72.398438 -115.636719 C 72.398438 -102.316406 83.210938 -93.011719 94.773438 -93.011719 C 109.101562 -93.011719 124.941406 -106.839844 124.941406 -143.289062 C 124.941406 -166.667969 113.125 -191.054688 87.484375 -191.054688 C 67.121094 -191.054688 56.8125 -174.714844 53.042969 -159.378906 L 53.042969 -188.539062 L 5.027344 -188.539062 C 13.070312 -180.746094 11.5625 -133.488281 11.5625 -120.414062 L 11.5625 -68.125 C 11.5625 -55.054688 13.070312 -7.792969 5.027344 0 Z M 59.578125 0 "/></g></g></g><g fill="#458a6b" fill-opacity="0.4"><g transform="translate(667.256779, 504.743733)"><g><path d="M 44.496094 2.515625 C 66.367188 2.765625 78.433594 -22.121094 78.433594 -22.121094 L 78.433594 0 L 125.945312 0 C 118.152344 -7.792969 119.660156 -55.054688 119.660156 -68.125 C 119.660156 -81.199219 119.410156 -123.933594 119.410156 -123.933594 C 119.410156 -156.613281 109.101562 -191.054688 64.105469 -191.054688 C 28.15625 -191.054688 11.0625 -169.6875 11.0625 -146.558594 C 11.0625 -128.207031 21.117188 -113.628906 41.480469 -113.628906 C 57.820312 -113.628906 61.339844 -125.441406 61.339844 -129.214844 C 54.800781 -129.214844 49.773438 -133.738281 49.773438 -141.78125 C 49.773438 -149.574219 56.058594 -154.855469 63.851562 -154.855469 C 74.660156 -154.855469 78.433594 -146.808594 78.433594 -140.023438 C 78.433594 -93.515625 7.542969 -111.363281 7.542969 -40.976562 C 7.542969 -16.089844 23.128906 2.515625 44.496094 2.515625 Z M 77.929688 -81.953125 L 77.929688 -52.792969 C 77.929688 -41.730469 73.90625 -33.6875 65.863281 -33.6875 C 57.316406 -33.6875 53.292969 -40.726562 53.292969 -49.523438 C 53.292969 -67.625 68.878906 -75.164062 77.929688 -81.953125 Z M 77.929688 -81.953125 "/></g></g></g><g fill="#458a6b" fill-opacity="0.4"><g transform="translate(798.226583, 504.743733)"><g><path d="M 16.589844 -148.570312 L 16.589844 -50.78125 C 16.589844 0 47.511719 0 74.914062 0 L 74.914062 -43.992188 C 68.125 -42.988281 57.820312 -38.460938 57.820312 -62.847656 L 57.820312 -148.570312 L 68.878906 -148.570312 L 68.878906 -188.539062 L 57.820312 -188.539062 L 57.820312 -231.777344 L 50.027344 -231.777344 C 50.027344 -231.777344 43.238281 -217.199219 31.421875 -205.132812 C 18.351562 -191.808594 5.277344 -188.539062 5.027344 -188.539062 L 5.027344 -148.570312 Z M 16.589844 -148.570312 "/></g></g></g><g fill="#458a6b" fill-opacity="0.4"><g transform="translate(875.652126, 504.743733)"><g><path d="M 8.796875 -54.046875 C 8.796875 -29.914062 17.347656 2.515625 63.601562 2.515625 C 110.863281 2.515625 117.648438 -33.433594 117.648438 -54.046875 L 117.648438 -130.722656 C 117.648438 -155.105469 110.863281 -191.054688 63.601562 -191.054688 C 17.347656 -191.054688 8.796875 -158.625 8.796875 -134.492188 Z M 50.527344 -138.261719 C 51.03125 -150.078125 56.8125 -154.855469 63.097656 -154.855469 C 69.382812 -154.855469 75.417969 -150.078125 75.667969 -138.261719 C 75.667969 -108.851562 75.667969 -79.691406 75.667969 -50.277344 C 75.417969 -38.460938 69.382812 -33.6875 63.097656 -33.6875 C 56.8125 -33.6875 51.03125 -38.460938 50.527344 -50.277344 C 50.527344 -79.691406 50.527344 -108.851562 50.527344 -138.261719 Z M 50.527344 -138.261719 "/></g></g></g><g fill="#458a6b" fill-opacity="0.4"><g transform="translate(1002.096991, 504.743733)"><g><path d="M 59.578125 0 C 51.535156 -7.792969 53.042969 -55.054688 53.042969 -68.125 L 53.042969 -98.796875 C 53.292969 -133.234375 55.554688 -154.855469 72.148438 -154.855469 C 78.433594 -154.855469 84.464844 -149.074219 84.464844 -136.503906 C 84.464844 -112.621094 72.398438 -115.636719 72.398438 -115.636719 C 72.398438 -102.316406 83.210938 -93.011719 94.773438 -93.011719 C 109.101562 -93.011719 124.941406 -106.839844 124.941406 -143.289062 C 124.941406 -166.667969 113.125 -191.054688 87.484375 -191.054688 C 67.121094 -191.054688 56.8125 -174.714844 53.042969 -159.378906 L 53.042969 -188.539062 L 5.027344 -188.539062 C 13.070312 -180.746094 11.5625 -133.488281 11.5625 -120.414062 L 11.5625 -68.125 C 11.5625 -55.054688 13.070312 -7.792969 5.027344 0 Z M 59.578125 0 "/></g></g></g><g fill="#458a6b" fill-opacity="0.4"><g transform="translate(1133.318181, 504.743733)"><g><path d="M 59.578125 0 C 51.785156 -7.792969 53.042969 -55.054688 53.042969 -68.125 L 53.042969 -188.539062 L 5.027344 -188.539062 C 13.070312 -180.746094 11.5625 -133.488281 11.5625 -120.414062 L 11.5625 -68.125 C 11.5625 -55.054688 13.070312 -7.792969 5.027344 0 Z M 5.027344 -222.730469 C 5.027344 -207.144531 15.335938 -196.835938 31.171875 -196.835938 C 46.757812 -196.835938 57.066406 -207.144531 57.066406 -222.730469 C 57.066406 -238.566406 46.757812 -248.875 31.171875 -248.875 C 15.335938 -248.875 5.027344 -238.566406 5.027344 -222.730469 Z M 5.027344 -222.730469 "/></g></g></g><g fill="#458a6b" fill-opacity="0.4"><g transform="translate(1197.923233, 504.743733)"><g><path d="M 8.796875 -54.046875 C 8.796875 -29.914062 17.347656 2.515625 63.601562 2.515625 C 110.863281 2.515625 117.648438 -33.433594 117.648438 -54.046875 L 117.648438 -130.722656 C 117.648438 -155.105469 110.863281 -191.054688 63.601562 -191.054688 C 17.347656 -191.054688 8.796875 -158.625 8.796875 -134.492188 Z M 50.527344 -138.261719 C 51.03125 -150.078125 56.8125 -154.855469 63.097656 -154.855469 C 69.382812 -154.855469 75.417969 -150.078125 75.667969 -138.261719 C 75.667969 -108.851562 75.667969 -79.691406 75.667969 -50.277344 C 75.417969 -38.460938 69.382812 -33.6875 63.097656 -33.6875 C 56.8125 -33.6875 51.03125 -38.460938 50.527344 -50.277344 C 50.527344 -79.691406 50.527344 -108.851562 50.527344 -138.261719 Z M 50.527344 -138.261719 "/></g></g></g><g fill="#458a6b" fill-opacity="0.4"><g transform="translate(1324.368098, 504.743733)"><g><path d="M 58.320312 2.515625 C 86.730469 2.515625 111.867188 -15.835938 111.867188 -49.273438 C 111.867188 -106.589844 48.015625 -119.15625 48.769531 -144.800781 C 49.019531 -154.101562 57.316406 -157.117188 65.109375 -157.117188 C 77.175781 -157.117188 88.992188 -154.101562 100.304688 -147.3125 L 100.304688 -190.804688 C 79.4375 -188.539062 72.902344 -191.054688 55.054688 -191.054688 C 25.390625 -191.054688 7.289062 -168.933594 7.289062 -144.546875 C 7.289062 -97.285156 72.902344 -88.992188 72.902344 -53.546875 C 72.902344 -40.472656 66.867188 -33.433594 57.820312 -33.433594 C 50.027344 -33.433594 43.742188 -38.964844 43.742188 -46.757812 C 43.742188 -54.550781 48.769531 -59.328125 55.304688 -59.328125 C 55.304688 -63.097656 51.785156 -74.914062 35.445312 -74.914062 C 15.082031 -74.914062 5.027344 -60.332031 5.027344 -41.730469 C 5.027344 -18.855469 22.375 2.515625 58.320312 2.515625 Z M 58.320312 2.515625 "/></g></g></g><g fill="#458a6b" fill-opacity="1"><g transform="translate(14.872591, 493.633742)"><g><path d="M 116.644531 0 L 116.644531 -44.246094 C 96.53125 -35.195312 86.730469 -36.199219 63.097656 -36.199219 L 56.3125 -36.199219 C 56.3125 -36.199219 56.3125 -180.746094 56.3125 -193.820312 C 56.3125 -206.890625 54.800781 -254.152344 62.847656 -261.945312 L 7.542969 -261.945312 C 15.585938 -254.152344 14.078125 -206.890625 14.078125 -193.820312 L 14.078125 -68.125 C 14.078125 -55.054688 15.585938 -7.792969 7.542969 0 Z M 116.644531 0 "/></g></g></g><g fill="#458a6b" fill-opacity="1"><g transform="translate(136.541238, 493.633742)"><g><path d="M 44.496094 2.515625 C 66.367188 2.765625 78.433594 -22.121094 78.433594 -22.121094 L 78.433594 0 L 125.945312 0 C 118.152344 -7.792969 119.660156 -55.054688 119.660156 -68.125 C 119.660156 -81.199219 119.410156 -123.933594 119.410156 -123.933594 C 119.410156 -156.613281 109.101562 -191.054688 64.105469 -191.054688 C 28.15625 -191.054688 11.0625 -169.6875 11.0625 -146.558594 C 11.0625 -128.207031 21.117188 -113.628906 41.480469 -113.628906 C 57.820312 -113.628906 61.339844 -125.441406 61.339844 -129.214844 C 54.800781 -129.214844 49.773438 -133.738281 49.773438 -141.78125 C 49.773438 -149.574219 56.058594 -154.855469 63.851562 -154.855469 C 74.660156 -154.855469 78.433594 -146.808594 78.433594 -140.023438 C 78.433594 -93.515625 7.542969 -111.363281 7.542969 -40.976562 C 7.542969 -16.089844 23.128906 2.515625 44.496094 2.515625 Z M 77.929688 -81.953125 L 77.929688 -52.792969 C 77.929688 -41.730469 73.90625 -33.6875 65.863281 -33.6875 C 57.316406 -33.6875 53.292969 -40.726562 53.292969 -49.523438 C 53.292969 -67.625 68.878906 -75.164062 77.929688 -81.953125 Z M 77.929688 -81.953125 "/></g></g></g><g fill="#458a6b" fill-opacity="1"><g transform="translate(267.511, 493.633742)"><g><path d="M 53.292969 0 L 53.292969 -8.796875 C 60.082031 -0.753906 72.902344 2.515625 81.199219 2.515625 C 99.550781 2.515625 120.917969 -11.5625 120.917969 -59.328125 L 120.917969 -128.960938 C 120.917969 -172.453125 105.332031 -191.054688 78.179688 -191.054688 C 70.136719 -191.054688 59.074219 -188.039062 53.546875 -181 L 53.546875 -193.820312 C 53.546875 -206.890625 52.039062 -254.152344 60.082031 -261.945312 L 6.035156 -261.945312 C 13.828125 -254.152344 12.570312 -206.890625 12.570312 -193.820312 L 11.5625 -68.125 C 11.5625 -55.054688 13.070312 -7.792969 5.027344 0 Z M 53.796875 -138.261719 C 54.046875 -150.078125 60.082031 -154.855469 66.367188 -154.855469 C 72.652344 -154.855469 78.683594 -150.078125 78.9375 -138.261719 C 78.9375 -108.851562 78.9375 -79.691406 78.9375 -50.277344 C 78.683594 -38.460938 72.652344 -33.6875 66.367188 -33.6875 C 60.082031 -33.6875 54.046875 -38.460938 53.796875 -50.277344 C 53.796875 -79.691406 53.796875 -108.851562 53.796875 -138.261719 Z M 53.796875 -138.261719 "/></g></g></g><g fill="#458a6b" fill-opacity="1"><g transform="translate(398.48074, 493.633742)"><g><path d="M 8.796875 -54.046875 C 8.796875 -29.914062 17.347656 2.515625 63.601562 2.515625 C 110.863281 2.515625 117.648438 -33.433594 117.648438 -54.046875 L 117.648438 -130.722656 C 117.648438 -155.105469 110.863281 -191.054688 63.601562 -191.054688 C 17.347656 -191.054688 8.796875 -158.625 8.796875 -134.492188 Z M 50.527344 -138.261719 C 51.03125 -150.078125 56.8125 -154.855469 63.097656 -154.855469 C 69.382812 -154.855469 75.417969 -150.078125 75.667969 -138.261719 C 75.667969 -108.851562 75.667969 -79.691406 75.667969 -50.277344 C 75.417969 -38.460938 69.382812 -33.6875 63.097656 -33.6875 C 56.8125 -33.6875 51.03125 -38.460938 50.527344 -50.277344 C 50.527344 -79.691406 50.527344 -108.851562 50.527344 -138.261719 Z M 50.527344 -138.261719 "/></g></g></g><g fill="#458a6b" fill-opacity="1"><g transform="translate(524.925648, 493.633742)"><g><path d="M 59.578125 0 C 51.535156 -7.792969 53.042969 -55.054688 53.042969 -68.125 L 53.042969 -98.796875 C 53.292969 -133.234375 55.554688 -154.855469 72.148438 -154.855469 C 78.433594 -154.855469 84.464844 -149.074219 84.464844 -136.503906 C 84.464844 -112.621094 72.398438 -115.636719 72.398438 -115.636719 C 72.398438 -102.316406 83.210938 -93.011719 94.773438 -93.011719 C 109.101562 -93.011719 124.941406 -106.839844 124.941406 -143.289062 C 124.941406 -166.667969 113.125 -191.054688 87.484375 -191.054688 C 67.121094 -191.054688 56.8125 -174.714844 53.042969 -159.378906 L 53.042969 -188.539062 L 5.027344 -188.539062 C 13.070312 -180.746094 11.5625 -133.488281 11.5625 -120.414062 L 11.5625 -68.125 C 11.5625 -55.054688 13.070312 -7.792969 5.027344 0 Z M 59.578125 0 "/></g></g></g><g fill="#458a6b" fill-opacity="1"><g transform="translate(656.146795, 493.633742)"><g><path d="M 44.496094 2.515625 C 66.367188 2.765625 78.433594 -22.121094 78.433594 -22.121094 L 78.433594 0 L 125.945312 0 C 118.152344 -7.792969 119.660156 -55.054688 119.660156 -68.125 C 119.660156 -81.199219 119.410156 -123.933594 119.410156 -123.933594 C 119.410156 -156.613281 109.101562 -191.054688 64.105469 -191.054688 C 28.15625 -191.054688 11.0625 -169.6875 11.0625 -146.558594 C 11.0625 -128.207031 21.117188 -113.628906 41.480469 -113.628906 C 57.820312 -113.628906 61.339844 -125.441406 61.339844 -129.214844 C 54.800781 -129.214844 49.773438 -133.738281 49.773438 -141.78125 C 49.773438 -149.574219 56.058594 -154.855469 63.851562 -154.855469 C 74.660156 -154.855469 78.433594 -146.808594 78.433594 -140.023438 C 78.433594 -93.515625 7.542969 -111.363281 7.542969 -40.976562 C 7.542969 -16.089844 23.128906 2.515625 44.496094 2.515625 Z M 77.929688 -81.953125 L 77.929688 -52.792969 C 77.929688 -41.730469 73.90625 -33.6875 65.863281 -33.6875 C 57.316406 -33.6875 53.292969 -40.726562 53.292969 -49.523438 C 53.292969 -67.625 68.878906 -75.164062 77.929688 -81.953125 Z M 77.929688 -81.953125 "/></g></g></g><g fill="#458a6b" fill-opacity="1"><g transform="translate(787.116599, 493.633742)"><g><path d="M 16.589844 -148.570312 L 16.589844 -50.78125 C 16.589844 0 47.511719 0 74.914062 0 L 74.914062 -43.992188 C 68.125 -42.988281 57.820312 -38.460938 57.820312 -62.847656 L 57.820312 -148.570312 L 68.878906 -148.570312 L 68.878906 -188.539062 L 57.820312 -188.539062 L 57.820312 -231.777344 L 50.027344 -231.777344 C 50.027344 -231.777344 43.238281 -217.199219 31.421875 -205.132812 C 18.351562 -191.808594 5.277344 -188.539062 5.027344 -188.539062 L 5.027344 -148.570312 Z M 16.589844 -148.570312 "/></g></g></g><g fill="#458a6b" fill-opacity="1"><g transform="translate(864.542142, 493.633742)"><g><path d="M 8.796875 -54.046875 C 8.796875 -29.914062 17.347656 2.515625 63.601562 2.515625 C 110.863281 2.515625 117.648438 -33.433594 117.648438 -54.046875 L 117.648438 -130.722656 C 117.648438 -155.105469 110.863281 -191.054688 63.601562 -191.054688 C 17.347656 -191.054688 8.796875 -158.625 8.796875 -134.492188 Z M 50.527344 -138.261719 C 51.03125 -150.078125 56.8125 -154.855469 63.097656 -154.855469 C 69.382812 -154.855469 75.417969 -150.078125 75.667969 -138.261719 C 75.667969 -108.851562 75.667969 -79.691406 75.667969 -50.277344 C 75.417969 -38.460938 69.382812 -33.6875 63.097656 -33.6875 C 56.8125 -33.6875 51.03125 -38.460938 50.527344 -50.277344 C 50.527344 -79.691406 50.527344 -108.851562 50.527344 -138.261719 Z M 50.527344 -138.261719 "/></g></g></g><g fill="#458a6b" fill-opacity="1"><g transform="translate(990.987007, 493.633742)"><g><path d="M 59.578125 0 C 51.535156 -7.792969 53.042969 -55.054688 53.042969 -68.125 L 53.042969 -98.796875 C 53.292969 -133.234375 55.554688 -154.855469 72.148438 -154.855469 C 78.433594 -154.855469 84.464844 -149.074219 84.464844 -136.503906 C 84.464844 -112.621094 72.398438 -115.636719 72.398438 -115.636719 C 72.398438 -102.316406 83.210938 -93.011719 94.773438 -93.011719 C 109.101562 -93.011719 124.941406 -106.839844 124.941406 -143.289062 C 124.941406 -166.667969 113.125 -191.054688 87.484375 -191.054688 C 67.121094 -191.054688 56.8125 -174.714844 53.042969 -159.378906 L 53.042969 -188.539062 L 5.027344 -188.539062 C 13.070312 -180.746094 11.5625 -133.488281 11.5625 -120.414062 L 11.5625 -68.125 C 11.5625 -55.054688 13.070312 -7.792969 5.027344 0 Z M 59.578125 0 "/></g></g></g><g fill="#458a6b" fill-opacity="1"><g transform="translate(1122.208196, 493.633742)"><g><path d="M 59.578125 0 C 51.785156 -7.792969 53.042969 -55.054688 53.042969 -68.125 L 53.042969 -188.539062 L 5.027344 -188.539062 C 13.070312 -180.746094 11.5625 -133.488281 11.5625 -120.414062 L 11.5625 -68.125 C 11.5625 -55.054688 13.070312 -7.792969 5.027344 0 Z M 5.027344 -222.730469 C 5.027344 -207.144531 15.335938 -196.835938 31.171875 -196.835938 C 46.757812 -196.835938 57.066406 -207.144531 57.066406 -222.730469 C 57.066406 -238.566406 46.757812 -248.875 31.171875 -248.875 C 15.335938 -248.875 5.027344 -238.566406 5.027344 -222.730469 Z M 5.027344 -222.730469 "/></g></g></g><g fill="#458a6b" fill-opacity="1"><g transform="translate(1186.813249, 493.633742)"><g><path d="M 8.796875 -54.046875 C 8.796875 -29.914062 17.347656 2.515625 63.601562 2.515625 C 110.863281 2.515625 117.648438 -33.433594 117.648438 -54.046875 L 117.648438 -130.722656 C 117.648438 -155.105469 110.863281 -191.054688 63.601562 -191.054688 C 17.347656 -191.054688 8.796875 -158.625 8.796875 -134.492188 Z M 50.527344 -138.261719 C 51.03125 -150.078125 56.8125 -154.855469 63.097656 -154.855469 C 69.382812 -154.855469 75.417969 -150.078125 75.667969 -138.261719 C 75.667969 -108.851562 75.667969 -79.691406 75.667969 -50.277344 C 75.417969 -38.460938 69.382812 -33.6875 63.097656 -33.6875 C 56.8125 -33.6875 51.03125 -38.460938 50.527344 -50.277344 C 50.527344 -79.691406 50.527344 -108.851562 50.527344 -138.261719 Z M 50.527344 -138.261719 "/></g></g></g><g fill="#458a6b" fill-opacity="1"><g transform="translate(1313.258114, 493.633742)"><g><path d="M 58.320312 2.515625 C 86.730469 2.515625 111.867188 -15.835938 111.867188 -49.273438 C 111.867188 -106.589844 48.015625 -119.15625 48.769531 -144.800781 C 49.019531 -154.101562 57.316406 -157.117188 65.109375 -157.117188 C 77.175781 -157.117188 88.992188 -154.101562 100.304688 -147.3125 L 100.304688 -190.804688 C 79.4375 -188.539062 72.902344 -191.054688 55.054688 -191.054688 C 25.390625 -191.054688 7.289062 -168.933594 7.289062 -144.546875 C 7.289062 -97.285156 72.902344 -88.992188 72.902344 -53.546875 C 72.902344 -40.472656 66.867188 -33.433594 57.820312 -33.433594 C 50.027344 -33.433594 43.742188 -38.964844 43.742188 -46.757812 C 43.742188 -54.550781 48.769531 -59.328125 55.304688 -59.328125 C 55.304688 -63.097656 51.785156 -74.914062 35.445312 -74.914062 C 15.082031 -74.914062 5.027344 -60.332031 5.027344 -41.730469 C 5.027344 -18.855469 22.375 2.515625 58.320312 2.515625 Z M 58.320312 2.515625 "/></g></g></g></svg>