<svg xmlns="http://www.w3.org/2000/svg" xmlns:xlink="http://www.w3.org/1999/xlink" width="360" zoomAndPan="magnify" viewBox="0 0 270 135.000003" height="180" preserveAspectRatio="xMidYMid meet" version="1.0"><defs><g/></defs><g fill="#458a6b" fill-opacity="0.4"><g transform="translate(3.584871, 79.66631)"><g><path d="M 0.960938 0 L 8.046875 0 C 7.019531 -0.992188 7.210938 -7.019531 7.210938 -8.6875 C 7.210938 -10.355469 7.179688 -12.4375 7.179688 -12.46875 C 12.210938 -14.007812 17.054688 -18.207031 17.054688 -24.554688 C 17.054688 -30.804688 13.6875 -33.402344 8.078125 -33.402344 L 0.960938 -33.402344 C 1.988281 -32.40625 1.796875 -26.382812 1.796875 -24.714844 L 1.796875 -8.6875 C 1.796875 -7.019531 1.988281 -0.992188 0.960938 0 Z M 7.179688 -18.398438 L 7.179688 -28.335938 L 8.496094 -28.335938 C 10.609375 -28.335938 11.636719 -26.796875 11.636719 -24.585938 C 11.636719 -21.316406 9.617188 -18.398438 7.179688 -18.398438 Z M 7.179688 -18.398438 "/></g></g></g><g fill="#458a6b" fill-opacity="0.4"><g transform="translate(21.598789, 79.66631)"><g><path d="M 7.597656 0 C 6.570312 -0.992188 6.761719 -7.019531 6.761719 -8.6875 L 6.761719 -12.597656 C 6.796875 -16.988281 7.085938 -19.746094 9.199219 -19.746094 C 10 -19.746094 10.769531 -19.007812 10.769531 -17.40625 C 10.769531 -14.359375 9.230469 -14.746094 9.230469 -14.746094 C 9.230469 -13.046875 10.609375 -11.859375 12.085938 -11.859375 C 13.910156 -11.859375 15.929688 -13.625 15.929688 -18.269531 C 15.929688 -21.253906 14.425781 -24.363281 11.15625 -24.363281 C 8.558594 -24.363281 7.246094 -22.277344 6.761719 -20.324219 L 6.761719 -24.039062 L 0.640625 -24.039062 C 1.667969 -23.046875 1.472656 -17.019531 1.472656 -15.355469 L 1.472656 -8.6875 C 1.472656 -7.019531 1.667969 -0.992188 0.640625 0 Z M 7.597656 0 "/></g></g></g><g fill="#458a6b" fill-opacity="0.4"><g transform="translate(38.330582, 79.66631)"><g><path d="M 1.121094 -6.890625 C 1.121094 -3.816406 2.210938 0.320312 8.109375 0.320312 C 14.136719 0.320312 15 -4.261719 15 -6.890625 L 15 -16.667969 C 15 -19.777344 14.136719 -24.363281 8.109375 -24.363281 C 2.210938 -24.363281 1.121094 -20.226562 1.121094 -17.148438 Z M 6.441406 -17.628906 C 6.507812 -19.136719 7.246094 -19.746094 8.046875 -19.746094 C 8.847656 -19.746094 9.617188 -19.136719 9.648438 -17.628906 C 9.648438 -13.878906 9.648438 -10.160156 9.648438 -6.410156 C 9.617188 -4.90625 8.847656 -4.296875 8.046875 -4.296875 C 7.246094 -4.296875 6.507812 -4.90625 6.441406 -6.410156 C 6.441406 -10.160156 6.441406 -13.878906 6.441406 -17.628906 Z M 6.441406 -17.628906 "/></g></g></g><g fill="#458a6b" fill-opacity="0.4"><g transform="translate(54.453365, 79.66631)"><g><path d="M 1.472656 -15.355469 C 1.472656 -12.050781 1.441406 -8.71875 1.441406 -5.417969 C 1.441406 -2.308594 2.179688 0.320312 5.449219 0.320312 C 7.050781 0.320312 8.78125 -0.191406 9.648438 -1.058594 L 9.679688 3.398438 C 9.679688 4.777344 8.910156 5.417969 8.011719 5.417969 C 7.117188 5.417969 6.636719 4.710938 6.636719 4.070312 C 6.636719 3.429688 7.117188 2.851562 8.011719 2.851562 C 8.011719 2.371094 7.019531 1.539062 5.320312 1.539062 C 3.046875 1.539062 1.1875 2.789062 1.1875 5.417969 C 1.1875 8.078125 2.851562 10.835938 8.109375 10.835938 C 12.917969 10.835938 15.289062 7.917969 15.289062 4.230469 L 15.289062 -15.320312 C 15.289062 -16.988281 15.097656 -23.046875 16.125 -24.039062 L 9.167969 -24.039062 C 10.160156 -23.046875 10 -16.988281 10 -15.320312 L 10 -6.25 C 10 -4.742188 9.070312 -4.296875 8.398438 -4.296875 C 7.726562 -4.296875 6.730469 -4.742188 6.730469 -6.25 L 6.730469 -17.726562 C 6.730469 -19.84375 6.761719 -21.925781 6.761719 -24.039062 L 0.640625 -24.039062 C 1.667969 -23.046875 1.472656 -17.019531 1.472656 -15.355469 Z M 1.472656 -15.355469 "/></g></g></g><g fill="#458a6b" fill-opacity="0.4"><g transform="translate(71.217206, 79.66631)"><g><path d="M 1.121094 -17.4375 L 1.121094 -6.601562 C 1.121094 -1.761719 4.457031 0.320312 8.621094 0.320312 C 13.078125 0.320312 15.386719 -1.859375 15.386719 -4.742188 C 15.386719 -7.53125 13.65625 -8.398438 12.148438 -8.398438 C 10.929688 -8.398438 9.777344 -7.660156 9.777344 -6.761719 C 10.929688 -6.761719 11.089844 -4.261719 8.847656 -4.261719 C 7.46875 -4.261719 6.476562 -4.90625 6.441406 -6.410156 C 6.441406 -7.050781 6.410156 -8.847656 6.410156 -9.679688 L 14.9375 -9.679688 C 14.9375 -9.679688 14.96875 -12.246094 14.96875 -15 L 14.96875 -17.4375 C 14.96875 -22.277344 12.179688 -24.363281 8.011719 -24.363281 C 3.847656 -24.363281 1.121094 -22.277344 1.121094 -17.4375 Z M 6.476562 -17.628906 C 6.476562 -19.136719 7.277344 -19.746094 8.078125 -19.746094 C 8.878906 -19.746094 9.679688 -19.136719 9.679688 -17.628906 L 9.679688 -14.230469 L 6.476562 -14.230469 Z M 6.476562 -17.628906 "/></g></g></g><g fill="#458a6b" fill-opacity="0.4"><g transform="translate(87.564357, 79.66631)"><g><path d="M 1.121094 -17.4375 L 1.121094 -6.601562 C 1.121094 -1.761719 3.847656 0.320312 8.011719 0.320312 C 12.148438 0.320312 14.96875 -1.761719 14.96875 -6.601562 L 14.96875 -9.039062 L 9.679688 -9.039062 C 9.679688 -8.207031 9.648438 -7.050781 9.648438 -6.410156 C 9.617188 -4.90625 8.847656 -4.261719 8.046875 -4.261719 C 7.246094 -4.261719 6.476562 -4.90625 6.441406 -6.410156 C 6.441406 -10.160156 6.441406 -13.878906 6.441406 -17.628906 C 6.476562 -19.136719 7.246094 -19.746094 8.046875 -19.746094 C 8.847656 -19.746094 9.617188 -19.136719 9.648438 -17.628906 C 9.648438 -16.988281 9.679688 -15.835938 9.679688 -15 L 14.96875 -15 L 14.96875 -17.4375 C 14.96875 -22.277344 12.179688 -24.363281 8.011719 -24.363281 C 3.847656 -24.363281 1.121094 -22.277344 1.121094 -17.4375 Z M 1.121094 -17.4375 "/></g></g></g><g fill="#458a6b" fill-opacity="0.4"><g transform="translate(103.49482, 79.66631)"><g><path d="M 2.117188 -18.945312 L 2.117188 -6.476562 C 2.117188 0 6.058594 0 9.550781 0 L 9.550781 -5.609375 C 8.6875 -5.480469 7.371094 -4.90625 7.371094 -8.011719 L 7.371094 -18.945312 L 8.78125 -18.945312 L 8.78125 -24.039062 L 7.371094 -24.039062 L 7.371094 -29.554688 L 6.378906 -29.554688 C 6.378906 -29.554688 5.511719 -27.695312 4.007812 -26.15625 C 2.339844 -24.457031 0.671875 -24.039062 0.640625 -24.039062 L 0.640625 -18.945312 Z M 2.117188 -18.945312 "/></g></g></g><g fill="#458a6b" fill-opacity="0.4"><g transform="translate(113.367216, 79.66631)"><g><path d="M 1.121094 -6.890625 C 1.121094 -3.816406 2.210938 0.320312 8.109375 0.320312 C 14.136719 0.320312 15 -4.261719 15 -6.890625 L 15 -16.667969 C 15 -19.777344 14.136719 -24.363281 8.109375 -24.363281 C 2.210938 -24.363281 1.121094 -20.226562 1.121094 -17.148438 Z M 6.441406 -17.628906 C 6.507812 -19.136719 7.246094 -19.746094 8.046875 -19.746094 C 8.847656 -19.746094 9.617188 -19.136719 9.648438 -17.628906 C 9.648438 -13.878906 9.648438 -10.160156 9.648438 -6.410156 C 9.617188 -4.90625 8.847656 -4.296875 8.046875 -4.296875 C 7.246094 -4.296875 6.507812 -4.90625 6.441406 -6.410156 C 6.441406 -10.160156 6.441406 -13.878906 6.441406 -17.628906 Z M 6.441406 -17.628906 "/></g></g></g><g fill="#458a6b" fill-opacity="0.4"><g transform="translate(129.49, 79.66631)"><g/></g></g><g fill="#458a6b" fill-opacity="0.4"><g transform="translate(137.503309, 79.66631)"><g><path d="M 1.121094 -17.4375 L 1.121094 -6.601562 C 1.121094 -1.761719 4.457031 0.320312 8.621094 0.320312 C 13.078125 0.320312 15.386719 -1.859375 15.386719 -4.742188 C 15.386719 -7.53125 13.65625 -8.398438 12.148438 -8.398438 C 10.929688 -8.398438 9.777344 -7.660156 9.777344 -6.761719 C 10.929688 -6.761719 11.089844 -4.261719 8.847656 -4.261719 C 7.46875 -4.261719 6.476562 -4.90625 6.441406 -6.410156 C 6.441406 -7.050781 6.410156 -8.847656 6.410156 -9.679688 L 14.9375 -9.679688 C 14.9375 -9.679688 14.96875 -12.246094 14.96875 -15 L 14.96875 -17.4375 C 14.96875 -22.277344 12.179688 -24.363281 8.011719 -24.363281 C 3.847656 -24.363281 1.121094 -22.277344 1.121094 -17.4375 Z M 6.476562 -17.628906 C 6.476562 -19.136719 7.277344 -19.746094 8.078125 -19.746094 C 8.878906 -19.746094 9.679688 -19.136719 9.679688 -17.628906 L 9.679688 -14.230469 L 6.476562 -14.230469 Z M 6.476562 -17.628906 "/></g></g></g><g fill="#458a6b" fill-opacity="0.4"><g transform="translate(153.85046, 79.66631)"><g><path d="M 0.640625 0 L 7.597656 0 C 6.570312 -0.992188 6.761719 -7.019531 6.761719 -8.6875 C 6.761719 -11.667969 6.796875 -14.648438 6.796875 -17.628906 C 6.828125 -19.136719 7.691406 -19.746094 8.496094 -19.746094 C 9.265625 -19.746094 9.96875 -19.039062 10 -17.535156 C 10.03125 -14.617188 10 -11.667969 10 -8.6875 C 10 -7.019531 10.195312 -0.992188 9.167969 0 L 16.125 0 C 15.128906 -0.992188 15.289062 -7.019531 15.289062 -8.6875 C 15.289062 -11.667969 15.320312 -14.648438 15.320312 -17.628906 C 15.320312 -20.738281 14.90625 -24.363281 10.867188 -24.363281 C 8.589844 -24.363281 7.277344 -23.207031 6.828125 -22.4375 L 6.796875 -24.039062 L 0.640625 -24.039062 C 1.667969 -23.046875 1.472656 -17.019531 1.472656 -15.355469 C 1.472656 -12.375 1.472656 -11.667969 1.472656 -8.6875 C 1.472656 -7.019531 1.667969 -0.992188 0.640625 0 Z M 0.640625 0 "/></g></g></g><g fill="#458a6b" fill-opacity="0.4"><g transform="translate(170.6143, 79.66631)"><g/></g></g><g fill="#458a6b" fill-opacity="0.4"><g transform="translate(178.627609, 79.66631)"><g><path d="M 1.121094 -17.4375 L 1.121094 -6.601562 C 1.121094 -1.761719 4.457031 0.320312 8.621094 0.320312 C 13.078125 0.320312 15.386719 -1.859375 15.386719 -4.742188 C 15.386719 -7.53125 13.65625 -8.398438 12.148438 -8.398438 C 10.929688 -8.398438 9.777344 -7.660156 9.777344 -6.761719 C 10.929688 -6.761719 11.089844 -4.261719 8.847656 -4.261719 C 7.46875 -4.261719 6.476562 -4.90625 6.441406 -6.410156 C 6.441406 -7.050781 6.410156 -8.847656 6.410156 -9.679688 L 14.9375 -9.679688 C 14.9375 -9.679688 14.96875 -12.246094 14.96875 -15 L 14.96875 -17.4375 C 14.96875 -22.277344 12.179688 -24.363281 8.011719 -24.363281 C 3.847656 -24.363281 1.121094 -22.277344 1.121094 -17.4375 Z M 6.476562 -17.628906 C 6.476562 -19.136719 7.277344 -19.746094 8.078125 -19.746094 C 8.878906 -19.746094 9.679688 -19.136719 9.679688 -17.628906 L 9.679688 -14.230469 L 6.476562 -14.230469 Z M 6.476562 -17.628906 "/></g></g></g><g fill="#458a6b" fill-opacity="0.4"><g transform="translate(194.974761, 79.66631)"><g><path d="M 1.28125 -6.316406 C 1.28125 -2.179688 3.238281 0.320312 5.898438 0.320312 C 8.269531 0.320312 9.328125 -0.511719 9.839844 -1.027344 L 9.839844 0.640625 C 9.839844 2.308594 10.03125 8.367188 9.007812 9.328125 L 15.996094 9.328125 C 15 8.367188 15.160156 2.308594 15.160156 0.640625 L 15.160156 -15.355469 C 15.160156 -17.019531 15 -23.046875 15.996094 -24.039062 L 9.808594 -24.039062 L 9.808594 -23.113281 C 9.105469 -24.007812 7.980469 -24.394531 6.957031 -24.394531 C 3.492188 -24.394531 1.28125 -21.445312 1.28125 -15.898438 Z M 6.636719 -17.628906 C 6.667969 -19.136719 7.4375 -19.746094 8.238281 -19.746094 C 9.039062 -19.746094 9.808594 -19.136719 9.839844 -17.628906 C 9.839844 -13.878906 9.839844 -10.160156 9.839844 -6.410156 C 9.808594 -4.90625 9.039062 -4.296875 8.238281 -4.296875 C 7.4375 -4.296875 6.667969 -4.90625 6.636719 -6.410156 C 6.636719 -10.160156 6.636719 -13.878906 6.636719 -17.628906 Z M 6.636719 -17.628906 "/></g></g></g><g fill="#458a6b" fill-opacity="0.4"><g transform="translate(211.6104, 79.66631)"><g><path d="M 0.640625 -24.039062 C 1.667969 -23.046875 1.472656 -17.019531 1.472656 -15.355469 C 1.472656 -12.050781 1.441406 -8.71875 1.441406 -5.417969 C 1.441406 -2.308594 2.179688 0.320312 5.449219 0.320312 C 7.726562 0.320312 9.296875 -1.027344 9.96875 -1.601562 L 9.96875 0 L 16.125 0 C 15.097656 -0.992188 15.289062 -7.019531 15.289062 -8.6875 C 15.289062 -11.667969 15.289062 -21.09375 15.289062 -24.074219 L 9.167969 -24.039062 C 10.195312 -23.046875 10 -17.019531 10 -15.355469 C 10 -12.375 9.96875 -9.390625 9.96875 -6.410156 C 9.9375 -4.90625 9.105469 -4.296875 8.300781 -4.296875 C 7.5 -4.296875 6.828125 -5 6.761719 -6.507812 C 6.761719 -9.425781 6.730469 -21.058594 6.730469 -24.039062 Z M 0.640625 -24.039062 "/></g></g></g><g fill="#458a6b" fill-opacity="0.4"><g transform="translate(228.374228, 79.66631)"><g><path d="M 7.597656 0 C 6.601562 -0.992188 6.761719 -7.019531 6.761719 -8.6875 L 6.761719 -24.039062 L 0.640625 -24.039062 C 1.667969 -23.046875 1.472656 -17.019531 1.472656 -15.355469 L 1.472656 -8.6875 C 1.472656 -7.019531 1.667969 -0.992188 0.640625 0 Z M 0.640625 -28.402344 C 0.640625 -26.414062 1.957031 -25.097656 3.976562 -25.097656 C 5.960938 -25.097656 7.277344 -26.414062 7.277344 -28.402344 C 7.277344 -30.417969 5.960938 -31.734375 3.976562 -31.734375 C 1.957031 -31.734375 0.640625 -30.417969 0.640625 -28.402344 Z M 0.640625 -28.402344 "/></g></g></g><g fill="#458a6b" fill-opacity="0.4"><g transform="translate(236.611905, 79.66631)"><g><path d="M 0.640625 9.359375 L 7.691406 9.359375 C 6.636719 8.367188 6.828125 2.308594 6.828125 0.640625 L 6.828125 -1.121094 C 7.691406 -0.0976562 9.136719 0.320312 10.195312 0.320312 C 13.65625 0.320312 15.386719 -3.300781 15.386719 -8.109375 L 15.386719 -15.867188 C 15.386719 -21.414062 14.230469 -24.363281 10.769531 -24.363281 C 9.039062 -24.363281 7.566406 -23.304688 6.859375 -22.4375 L 6.859375 -24.039062 L 0.671875 -24.039062 C 1.699219 -23.046875 1.507812 -17.019531 1.507812 -15.355469 L 1.507812 0.671875 C 1.507812 2.339844 1.699219 8.367188 0.640625 9.359375 Z M 6.859375 -17.628906 C 6.890625 -19.136719 7.660156 -19.746094 8.460938 -19.746094 C 9.265625 -19.746094 10 -19.136719 10.066406 -17.628906 C 10.066406 -13.878906 10.066406 -10.160156 10.066406 -6.410156 C 10 -4.90625 9.265625 -4.296875 8.460938 -4.296875 C 7.660156 -4.296875 6.890625 -4.90625 6.859375 -6.410156 C 6.859375 -10.160156 6.859375 -13.878906 6.859375 -17.628906 Z M 6.859375 -17.628906 "/></g></g></g><g fill="#458a6b" fill-opacity="0.4"><g transform="translate(253.119307, 79.66631)"><g><path d="M 1.121094 -6.890625 C 1.121094 -3.816406 2.210938 0.320312 8.109375 0.320312 C 14.136719 0.320312 15 -4.261719 15 -6.890625 L 15 -16.667969 C 15 -19.777344 14.136719 -24.363281 8.109375 -24.363281 C 2.210938 -24.363281 1.121094 -20.226562 1.121094 -17.148438 Z M 6.441406 -17.628906 C 6.507812 -19.136719 7.246094 -19.746094 8.046875 -19.746094 C 8.847656 -19.746094 9.617188 -19.136719 9.648438 -17.628906 C 9.648438 -13.878906 9.648438 -10.160156 9.648438 -6.410156 C 9.617188 -4.90625 8.847656 -4.296875 8.046875 -4.296875 C 7.246094 -4.296875 6.507812 -4.90625 6.441406 -6.410156 C 6.441406 -10.160156 6.441406 -13.878906 6.441406 -17.628906 Z M 6.441406 -17.628906 "/></g></g></g><g fill="#458a6b" fill-opacity="1"><g transform="translate(2.16813, 78.249566)"><g><path d="M 0.960938 0 L 8.046875 0 C 7.019531 -0.992188 7.210938 -7.019531 7.210938 -8.6875 C 7.210938 -10.355469 7.179688 -12.4375 7.179688 -12.46875 C 12.210938 -14.007812 17.054688 -18.207031 17.054688 -24.554688 C 17.054688 -30.804688 13.6875 -33.402344 8.078125 -33.402344 L 0.960938 -33.402344 C 1.988281 -32.40625 1.796875 -26.382812 1.796875 -24.714844 L 1.796875 -8.6875 C 1.796875 -7.019531 1.988281 -0.992188 0.960938 0 Z M 7.179688 -18.398438 L 7.179688 -28.335938 L 8.496094 -28.335938 C 10.609375 -28.335938 11.636719 -26.796875 11.636719 -24.585938 C 11.636719 -21.316406 9.617188 -18.398438 7.179688 -18.398438 Z M 7.179688 -18.398438 "/></g></g></g><g fill="#458a6b" fill-opacity="1"><g transform="translate(20.182047, 78.249566)"><g><path d="M 7.597656 0 C 6.570312 -0.992188 6.761719 -7.019531 6.761719 -8.6875 L 6.761719 -12.597656 C 6.796875 -16.988281 7.085938 -19.746094 9.199219 -19.746094 C 10 -19.746094 10.769531 -19.007812 10.769531 -17.40625 C 10.769531 -14.359375 9.230469 -14.746094 9.230469 -14.746094 C 9.230469 -13.046875 10.609375 -11.859375 12.085938 -11.859375 C 13.910156 -11.859375 15.929688 -13.625 15.929688 -18.269531 C 15.929688 -21.253906 14.425781 -24.363281 11.15625 -24.363281 C 8.558594 -24.363281 7.246094 -22.277344 6.761719 -20.324219 L 6.761719 -24.039062 L 0.640625 -24.039062 C 1.667969 -23.046875 1.472656 -17.019531 1.472656 -15.355469 L 1.472656 -8.6875 C 1.472656 -7.019531 1.667969 -0.992188 0.640625 0 Z M 7.597656 0 "/></g></g></g><g fill="#458a6b" fill-opacity="1"><g transform="translate(36.91384, 78.249566)"><g><path d="M 1.121094 -6.890625 C 1.121094 -3.816406 2.210938 0.320312 8.109375 0.320312 C 14.136719 0.320312 15 -4.261719 15 -6.890625 L 15 -16.667969 C 15 -19.777344 14.136719 -24.363281 8.109375 -24.363281 C 2.210938 -24.363281 1.121094 -20.226562 1.121094 -17.148438 Z M 6.441406 -17.628906 C 6.507812 -19.136719 7.246094 -19.746094 8.046875 -19.746094 C 8.847656 -19.746094 9.617188 -19.136719 9.648438 -17.628906 C 9.648438 -13.878906 9.648438 -10.160156 9.648438 -6.410156 C 9.617188 -4.90625 8.847656 -4.296875 8.046875 -4.296875 C 7.246094 -4.296875 6.507812 -4.90625 6.441406 -6.410156 C 6.441406 -10.160156 6.441406 -13.878906 6.441406 -17.628906 Z M 6.441406 -17.628906 "/></g></g></g><g fill="#458a6b" fill-opacity="1"><g transform="translate(53.036624, 78.249566)"><g><path d="M 1.472656 -15.355469 C 1.472656 -12.050781 1.441406 -8.71875 1.441406 -5.417969 C 1.441406 -2.308594 2.179688 0.320312 5.449219 0.320312 C 7.050781 0.320312 8.78125 -0.191406 9.648438 -1.058594 L 9.679688 3.398438 C 9.679688 4.777344 8.910156 5.417969 8.011719 5.417969 C 7.117188 5.417969 6.636719 4.710938 6.636719 4.070312 C 6.636719 3.429688 7.117188 2.851562 8.011719 2.851562 C 8.011719 2.371094 7.019531 1.539062 5.320312 1.539062 C 3.046875 1.539062 1.1875 2.789062 1.1875 5.417969 C 1.1875 8.078125 2.851562 10.835938 8.109375 10.835938 C 12.917969 10.835938 15.289062 7.917969 15.289062 4.230469 L 15.289062 -15.320312 C 15.289062 -16.988281 15.097656 -23.046875 16.125 -24.039062 L 9.167969 -24.039062 C 10.160156 -23.046875 10 -16.988281 10 -15.320312 L 10 -6.25 C 10 -4.742188 9.070312 -4.296875 8.398438 -4.296875 C 7.726562 -4.296875 6.730469 -4.742188 6.730469 -6.25 L 6.730469 -17.726562 C 6.730469 -19.84375 6.761719 -21.925781 6.761719 -24.039062 L 0.640625 -24.039062 C 1.667969 -23.046875 1.472656 -17.019531 1.472656 -15.355469 Z M 1.472656 -15.355469 "/></g></g></g><g fill="#458a6b" fill-opacity="1"><g transform="translate(69.800464, 78.249566)"><g><path d="M 1.121094 -17.4375 L 1.121094 -6.601562 C 1.121094 -1.761719 4.457031 0.320312 8.621094 0.320312 C 13.078125 0.320312 15.386719 -1.859375 15.386719 -4.742188 C 15.386719 -7.53125 13.65625 -8.398438 12.148438 -8.398438 C 10.929688 -8.398438 9.777344 -7.660156 9.777344 -6.761719 C 10.929688 -6.761719 11.089844 -4.261719 8.847656 -4.261719 C 7.46875 -4.261719 6.476562 -4.90625 6.441406 -6.410156 C 6.441406 -7.050781 6.410156 -8.847656 6.410156 -9.679688 L 14.9375 -9.679688 C 14.9375 -9.679688 14.96875 -12.246094 14.96875 -15 L 14.96875 -17.4375 C 14.96875 -22.277344 12.179688 -24.363281 8.011719 -24.363281 C 3.847656 -24.363281 1.121094 -22.277344 1.121094 -17.4375 Z M 6.476562 -17.628906 C 6.476562 -19.136719 7.277344 -19.746094 8.078125 -19.746094 C 8.878906 -19.746094 9.679688 -19.136719 9.679688 -17.628906 L 9.679688 -14.230469 L 6.476562 -14.230469 Z M 6.476562 -17.628906 "/></g></g></g><g fill="#458a6b" fill-opacity="1"><g transform="translate(86.147616, 78.249566)"><g><path d="M 1.121094 -17.4375 L 1.121094 -6.601562 C 1.121094 -1.761719 3.847656 0.320312 8.011719 0.320312 C 12.148438 0.320312 14.96875 -1.761719 14.96875 -6.601562 L 14.96875 -9.039062 L 9.679688 -9.039062 C 9.679688 -8.207031 9.648438 -7.050781 9.648438 -6.410156 C 9.617188 -4.90625 8.847656 -4.261719 8.046875 -4.261719 C 7.246094 -4.261719 6.476562 -4.90625 6.441406 -6.410156 C 6.441406 -10.160156 6.441406 -13.878906 6.441406 -17.628906 C 6.476562 -19.136719 7.246094 -19.746094 8.046875 -19.746094 C 8.847656 -19.746094 9.617188 -19.136719 9.648438 -17.628906 C 9.648438 -16.988281 9.679688 -15.835938 9.679688 -15 L 14.96875 -15 L 14.96875 -17.4375 C 14.96875 -22.277344 12.179688 -24.363281 8.011719 -24.363281 C 3.847656 -24.363281 1.121094 -22.277344 1.121094 -17.4375 Z M 1.121094 -17.4375 "/></g></g></g><g fill="#458a6b" fill-opacity="1"><g transform="translate(102.078079, 78.249566)"><g><path d="M 2.117188 -18.945312 L 2.117188 -6.476562 C 2.117188 0 6.058594 0 9.550781 0 L 9.550781 -5.609375 C 8.6875 -5.480469 7.371094 -4.90625 7.371094 -8.011719 L 7.371094 -18.945312 L 8.78125 -18.945312 L 8.78125 -24.039062 L 7.371094 -24.039062 L 7.371094 -29.554688 L 6.378906 -29.554688 C 6.378906 -29.554688 5.511719 -27.695312 4.007812 -26.15625 C 2.339844 -24.457031 0.671875 -24.039062 0.640625 -24.039062 L 0.640625 -18.945312 Z M 2.117188 -18.945312 "/></g></g></g><g fill="#458a6b" fill-opacity="1"><g transform="translate(111.950474, 78.249566)"><g><path d="M 1.121094 -6.890625 C 1.121094 -3.816406 2.210938 0.320312 8.109375 0.320312 C 14.136719 0.320312 15 -4.261719 15 -6.890625 L 15 -16.667969 C 15 -19.777344 14.136719 -24.363281 8.109375 -24.363281 C 2.210938 -24.363281 1.121094 -20.226562 1.121094 -17.148438 Z M 6.441406 -17.628906 C 6.507812 -19.136719 7.246094 -19.746094 8.046875 -19.746094 C 8.847656 -19.746094 9.617188 -19.136719 9.648438 -17.628906 C 9.648438 -13.878906 9.648438 -10.160156 9.648438 -6.410156 C 9.617188 -4.90625 8.847656 -4.296875 8.046875 -4.296875 C 7.246094 -4.296875 6.507812 -4.90625 6.441406 -6.410156 C 6.441406 -10.160156 6.441406 -13.878906 6.441406 -17.628906 Z M 6.441406 -17.628906 "/></g></g></g><g fill="#458a6b" fill-opacity="1"><g transform="translate(128.073258, 78.249566)"><g/></g></g><g fill="#458a6b" fill-opacity="1"><g transform="translate(136.086567, 78.249566)"><g><path d="M 1.121094 -17.4375 L 1.121094 -6.601562 C 1.121094 -1.761719 4.457031 0.320312 8.621094 0.320312 C 13.078125 0.320312 15.386719 -1.859375 15.386719 -4.742188 C 15.386719 -7.53125 13.65625 -8.398438 12.148438 -8.398438 C 10.929688 -8.398438 9.777344 -7.660156 9.777344 -6.761719 C 10.929688 -6.761719 11.089844 -4.261719 8.847656 -4.261719 C 7.46875 -4.261719 6.476562 -4.90625 6.441406 -6.410156 C 6.441406 -7.050781 6.410156 -8.847656 6.410156 -9.679688 L 14.9375 -9.679688 C 14.9375 -9.679688 14.96875 -12.246094 14.96875 -15 L 14.96875 -17.4375 C 14.96875 -22.277344 12.179688 -24.363281 8.011719 -24.363281 C 3.847656 -24.363281 1.121094 -22.277344 1.121094 -17.4375 Z M 6.476562 -17.628906 C 6.476562 -19.136719 7.277344 -19.746094 8.078125 -19.746094 C 8.878906 -19.746094 9.679688 -19.136719 9.679688 -17.628906 L 9.679688 -14.230469 L 6.476562 -14.230469 Z M 6.476562 -17.628906 "/></g></g></g><g fill="#458a6b" fill-opacity="1"><g transform="translate(152.433719, 78.249566)"><g><path d="M 0.640625 0 L 7.597656 0 C 6.570312 -0.992188 6.761719 -7.019531 6.761719 -8.6875 C 6.761719 -11.667969 6.796875 -14.648438 6.796875 -17.628906 C 6.828125 -19.136719 7.691406 -19.746094 8.496094 -19.746094 C 9.265625 -19.746094 9.96875 -19.039062 10 -17.535156 C 10.03125 -14.617188 10 -11.667969 10 -8.6875 C 10 -7.019531 10.195312 -0.992188 9.167969 0 L 16.125 0 C 15.128906 -0.992188 15.289062 -7.019531 15.289062 -8.6875 C 15.289062 -11.667969 15.320312 -14.648438 15.320312 -17.628906 C 15.320312 -20.738281 14.90625 -24.363281 10.867188 -24.363281 C 8.589844 -24.363281 7.277344 -23.207031 6.828125 -22.4375 L 6.796875 -24.039062 L 0.640625 -24.039062 C 1.667969 -23.046875 1.472656 -17.019531 1.472656 -15.355469 C 1.472656 -12.375 1.472656 -11.667969 1.472656 -8.6875 C 1.472656 -7.019531 1.667969 -0.992188 0.640625 0 Z M 0.640625 0 "/></g></g></g><g fill="#458a6b" fill-opacity="1"><g transform="translate(169.197559, 78.249566)"><g/></g></g><g fill="#458a6b" fill-opacity="1"><g transform="translate(177.210868, 78.249566)"><g><path d="M 1.121094 -17.4375 L 1.121094 -6.601562 C 1.121094 -1.761719 4.457031 0.320312 8.621094 0.320312 C 13.078125 0.320312 15.386719 -1.859375 15.386719 -4.742188 C 15.386719 -7.53125 13.65625 -8.398438 12.148438 -8.398438 C 10.929688 -8.398438 9.777344 -7.660156 9.777344 -6.761719 C 10.929688 -6.761719 11.089844 -4.261719 8.847656 -4.261719 C 7.46875 -4.261719 6.476562 -4.90625 6.441406 -6.410156 C 6.441406 -7.050781 6.410156 -8.847656 6.410156 -9.679688 L 14.9375 -9.679688 C 14.9375 -9.679688 14.96875 -12.246094 14.96875 -15 L 14.96875 -17.4375 C 14.96875 -22.277344 12.179688 -24.363281 8.011719 -24.363281 C 3.847656 -24.363281 1.121094 -22.277344 1.121094 -17.4375 Z M 6.476562 -17.628906 C 6.476562 -19.136719 7.277344 -19.746094 8.078125 -19.746094 C 8.878906 -19.746094 9.679688 -19.136719 9.679688 -17.628906 L 9.679688 -14.230469 L 6.476562 -14.230469 Z M 6.476562 -17.628906 "/></g></g></g><g fill="#458a6b" fill-opacity="1"><g transform="translate(193.558019, 78.249566)"><g><path d="M 1.28125 -6.316406 C 1.28125 -2.179688 3.238281 0.320312 5.898438 0.320312 C 8.269531 0.320312 9.328125 -0.511719 9.839844 -1.027344 L 9.839844 0.640625 C 9.839844 2.308594 10.03125 8.367188 9.007812 9.328125 L 15.996094 9.328125 C 15 8.367188 15.160156 2.308594 15.160156 0.640625 L 15.160156 -15.355469 C 15.160156 -17.019531 15 -23.046875 15.996094 -24.039062 L 9.808594 -24.039062 L 9.808594 -23.113281 C 9.105469 -24.007812 7.980469 -24.394531 6.957031 -24.394531 C 3.492188 -24.394531 1.28125 -21.445312 1.28125 -15.898438 Z M 6.636719 -17.628906 C 6.667969 -19.136719 7.4375 -19.746094 8.238281 -19.746094 C 9.039062 -19.746094 9.808594 -19.136719 9.839844 -17.628906 C 9.839844 -13.878906 9.839844 -10.160156 9.839844 -6.410156 C 9.808594 -4.90625 9.039062 -4.296875 8.238281 -4.296875 C 7.4375 -4.296875 6.667969 -4.90625 6.636719 -6.410156 C 6.636719 -10.160156 6.636719 -13.878906 6.636719 -17.628906 Z M 6.636719 -17.628906 "/></g></g></g><g fill="#458a6b" fill-opacity="1"><g transform="translate(210.193658, 78.249566)"><g><path d="M 0.640625 -24.039062 C 1.667969 -23.046875 1.472656 -17.019531 1.472656 -15.355469 C 1.472656 -12.050781 1.441406 -8.71875 1.441406 -5.417969 C 1.441406 -2.308594 2.179688 0.320312 5.449219 0.320312 C 7.726562 0.320312 9.296875 -1.027344 9.96875 -1.601562 L 9.96875 0 L 16.125 0 C 15.097656 -0.992188 15.289062 -7.019531 15.289062 -8.6875 C 15.289062 -11.667969 15.289062 -21.09375 15.289062 -24.074219 L 9.167969 -24.039062 C 10.195312 -23.046875 10 -17.019531 10 -15.355469 C 10 -12.375 9.96875 -9.390625 9.96875 -6.410156 C 9.9375 -4.90625 9.105469 -4.296875 8.300781 -4.296875 C 7.5 -4.296875 6.828125 -5 6.761719 -6.507812 C 6.761719 -9.425781 6.730469 -21.058594 6.730469 -24.039062 Z M 0.640625 -24.039062 "/></g></g></g><g fill="#458a6b" fill-opacity="1"><g transform="translate(226.957487, 78.249566)"><g><path d="M 7.597656 0 C 6.601562 -0.992188 6.761719 -7.019531 6.761719 -8.6875 L 6.761719 -24.039062 L 0.640625 -24.039062 C 1.667969 -23.046875 1.472656 -17.019531 1.472656 -15.355469 L 1.472656 -8.6875 C 1.472656 -7.019531 1.667969 -0.992188 0.640625 0 Z M 0.640625 -28.402344 C 0.640625 -26.414062 1.957031 -25.097656 3.976562 -25.097656 C 5.960938 -25.097656 7.277344 -26.414062 7.277344 -28.402344 C 7.277344 -30.417969 5.960938 -31.734375 3.976562 -31.734375 C 1.957031 -31.734375 0.640625 -30.417969 0.640625 -28.402344 Z M 0.640625 -28.402344 "/></g></g></g><g fill="#458a6b" fill-opacity="1"><g transform="translate(235.195164, 78.249566)"><g><path d="M 0.640625 9.359375 L 7.691406 9.359375 C 6.636719 8.367188 6.828125 2.308594 6.828125 0.640625 L 6.828125 -1.121094 C 7.691406 -0.0976562 9.136719 0.320312 10.195312 0.320312 C 13.65625 0.320312 15.386719 -3.300781 15.386719 -8.109375 L 15.386719 -15.867188 C 15.386719 -21.414062 14.230469 -24.363281 10.769531 -24.363281 C 9.039062 -24.363281 7.566406 -23.304688 6.859375 -22.4375 L 6.859375 -24.039062 L 0.671875 -24.039062 C 1.699219 -23.046875 1.507812 -17.019531 1.507812 -15.355469 L 1.507812 0.671875 C 1.507812 2.339844 1.699219 8.367188 0.640625 9.359375 Z M 6.859375 -17.628906 C 6.890625 -19.136719 7.660156 -19.746094 8.460938 -19.746094 C 9.265625 -19.746094 10 -19.136719 10.066406 -17.628906 C 10.066406 -13.878906 10.066406 -10.160156 10.066406 -6.410156 C 10 -4.90625 9.265625 -4.296875 8.460938 -4.296875 C 7.660156 -4.296875 6.890625 -4.90625 6.859375 -6.410156 C 6.859375 -10.160156 6.859375 -13.878906 6.859375 -17.628906 Z M 6.859375 -17.628906 "/></g></g></g><g fill="#458a6b" fill-opacity="1"><g transform="translate(251.702565, 78.249566)"><g><path d="M 1.121094 -6.890625 C 1.121094 -3.816406 2.210938 0.320312 8.109375 0.320312 C 14.136719 0.320312 15 -4.261719 15 -6.890625 L 15 -16.667969 C 15 -19.777344 14.136719 -24.363281 8.109375 -24.363281 C 2.210938 -24.363281 1.121094 -20.226562 1.121094 -17.148438 Z M 6.441406 -17.628906 C 6.507812 -19.136719 7.246094 -19.746094 8.046875 -19.746094 C 8.847656 -19.746094 9.617188 -19.136719 9.648438 -17.628906 C 9.648438 -13.878906 9.648438 -10.160156 9.648438 -6.410156 C 9.617188 -4.90625 8.847656 -4.296875 8.046875 -4.296875 C 7.246094 -4.296875 6.507812 -4.90625 6.441406 -6.410156 C 6.441406 -10.160156 6.441406 -13.878906 6.441406 -17.628906 Z M 6.441406 -17.628906 "/></g></g></g></svg>