<svg xmlns="http://www.w3.org/2000/svg" xmlns:xlink="http://www.w3.org/1999/xlink" width="360" zoomAndPan="magnify" viewBox="0 0 270 135.000003" height="180" preserveAspectRatio="xMidYMid meet" version="1.0"><defs><g/></defs><g fill="#458a6b" fill-opacity="0.4"><g transform="translate(3.270383, 80.120595)"><g><path d="M 0.992188 0 L 8.296875 0 C 7.238281 -1.023438 7.4375 -7.238281 7.4375 -8.960938 C 7.4375 -10.679688 7.40625 -12.828125 7.40625 -12.859375 C 12.59375 -14.445312 17.585938 -18.777344 17.585938 -25.324219 C 17.585938 -31.769531 14.117188 -34.449219 8.332031 -34.449219 L 0.992188 -34.449219 C 2.050781 -33.421875 1.851562 -27.207031 1.851562 -25.488281 L 1.851562 -8.960938 C 1.851562 -7.238281 2.050781 -1.023438 0.992188 0 Z M 7.40625 -18.976562 L 7.40625 -29.222656 L 8.761719 -29.222656 C 10.941406 -29.222656 12 -27.636719 12 -25.355469 C 12 -21.984375 9.917969 -18.976562 7.40625 -18.976562 Z M 7.40625 -18.976562 "/></g></g></g><g fill="#458a6b" fill-opacity="0.4"><g transform="translate(21.849093, 80.120595)"><g><path d="M 7.835938 0 C 6.777344 -1.023438 6.976562 -7.238281 6.976562 -8.960938 L 6.976562 -12.992188 C 7.007812 -17.519531 7.304688 -20.363281 9.488281 -20.363281 C 10.3125 -20.363281 11.109375 -19.605469 11.109375 -17.949219 C 11.109375 -14.808594 9.519531 -15.207031 9.519531 -15.207031 C 9.519531 -13.453125 10.941406 -12.230469 12.464844 -12.230469 C 14.347656 -12.230469 16.429688 -14.050781 16.429688 -18.84375 C 16.429688 -21.917969 14.875 -25.125 11.503906 -25.125 C 8.828125 -25.125 7.472656 -22.976562 6.976562 -20.960938 L 6.976562 -24.792969 L 0.660156 -24.792969 C 1.71875 -23.769531 1.519531 -17.554688 1.519531 -15.835938 L 1.519531 -8.960938 C 1.519531 -7.238281 1.71875 -1.023438 0.660156 0 Z M 7.835938 0 "/></g></g></g><g fill="#458a6b" fill-opacity="0.4"><g transform="translate(39.105474, 80.120595)"><g><path d="M 1.15625 -7.109375 C 1.15625 -3.933594 2.28125 0.332031 8.363281 0.332031 C 14.578125 0.332031 15.472656 -4.398438 15.472656 -7.109375 L 15.472656 -17.191406 C 15.472656 -20.398438 14.578125 -25.125 8.363281 -25.125 C 2.28125 -25.125 1.15625 -20.859375 1.15625 -17.6875 Z M 6.644531 -18.183594 C 6.710938 -19.734375 7.472656 -20.363281 8.296875 -20.363281 C 9.125 -20.363281 9.917969 -19.734375 9.949219 -18.183594 C 9.949219 -14.316406 9.949219 -10.480469 9.949219 -6.613281 C 9.917969 -5.058594 9.125 -4.429688 8.296875 -4.429688 C 7.472656 -4.429688 6.710938 -5.058594 6.644531 -6.613281 C 6.644531 -10.480469 6.644531 -14.316406 6.644531 -18.183594 Z M 6.644531 -18.183594 "/></g></g></g><g fill="#458a6b" fill-opacity="0.4"><g transform="translate(55.733753, 80.120595)"><g><path d="M 1.519531 -15.835938 C 1.519531 -12.429688 1.488281 -8.992188 1.488281 -5.585938 C 1.488281 -2.378906 2.246094 0.332031 5.621094 0.332031 C 7.273438 0.332031 9.058594 -0.199219 9.949219 -1.089844 L 9.984375 3.503906 C 9.984375 4.925781 9.191406 5.585938 8.265625 5.585938 C 7.339844 5.585938 6.84375 4.859375 6.84375 4.199219 C 6.84375 3.539062 7.339844 2.941406 8.265625 2.941406 C 8.265625 2.445312 7.238281 1.585938 5.488281 1.585938 C 3.140625 1.585938 1.222656 2.875 1.222656 5.585938 C 1.222656 8.332031 2.941406 11.175781 8.363281 11.175781 C 13.324219 11.175781 15.769531 8.164062 15.769531 4.363281 L 15.769531 -15.800781 C 15.769531 -17.519531 15.570312 -23.769531 16.628906 -24.792969 L 9.453125 -24.792969 C 10.480469 -23.769531 10.3125 -17.519531 10.3125 -15.800781 L 10.3125 -6.445312 C 10.3125 -4.894531 9.355469 -4.429688 8.660156 -4.429688 C 7.96875 -4.429688 6.941406 -4.894531 6.941406 -6.445312 L 6.941406 -18.28125 C 6.941406 -20.464844 6.976562 -22.613281 6.976562 -24.792969 L 0.660156 -24.792969 C 1.71875 -23.769531 1.519531 -17.554688 1.519531 -15.835938 Z M 1.519531 -15.835938 "/></g></g></g><g fill="#458a6b" fill-opacity="0.4"><g transform="translate(73.023192, 80.120595)"><g><path d="M 1.15625 -17.984375 L 1.15625 -6.808594 C 1.15625 -1.816406 4.59375 0.332031 8.894531 0.332031 C 13.488281 0.332031 15.867188 -1.917969 15.867188 -4.894531 C 15.867188 -7.769531 14.082031 -8.660156 12.53125 -8.660156 C 11.273438 -8.660156 10.082031 -7.902344 10.082031 -6.976562 C 11.273438 -6.976562 11.4375 -4.398438 9.125 -4.398438 C 7.703125 -4.398438 6.679688 -5.058594 6.644531 -6.613281 C 6.644531 -7.273438 6.613281 -9.125 6.613281 -9.984375 L 15.40625 -9.984375 C 15.40625 -9.984375 15.4375 -12.628906 15.4375 -15.472656 L 15.4375 -17.984375 C 15.4375 -22.976562 12.5625 -25.125 8.265625 -25.125 C 3.96875 -25.125 1.15625 -22.976562 1.15625 -17.984375 Z M 6.679688 -18.183594 C 6.679688 -19.734375 7.503906 -20.363281 8.332031 -20.363281 C 9.15625 -20.363281 9.984375 -19.734375 9.984375 -18.183594 L 9.984375 -14.679688 L 6.679688 -14.679688 Z M 6.679688 -18.183594 "/></g></g></g><g fill="#458a6b" fill-opacity="0.4"><g transform="translate(89.882874, 80.120595)"><g><path d="M 1.15625 -17.984375 L 1.15625 -6.808594 C 1.15625 -1.816406 3.96875 0.332031 8.265625 0.332031 C 12.53125 0.332031 15.4375 -1.816406 15.4375 -6.808594 L 15.4375 -9.324219 L 9.984375 -9.324219 C 9.984375 -8.464844 9.949219 -7.273438 9.949219 -6.613281 C 9.917969 -5.058594 9.125 -4.398438 8.296875 -4.398438 C 7.472656 -4.398438 6.679688 -5.058594 6.644531 -6.613281 C 6.644531 -10.480469 6.644531 -14.316406 6.644531 -18.183594 C 6.679688 -19.734375 7.472656 -20.363281 8.296875 -20.363281 C 9.125 -20.363281 9.917969 -19.734375 9.949219 -18.183594 C 9.949219 -17.519531 9.984375 -16.332031 9.984375 -15.472656 L 15.4375 -15.472656 L 15.4375 -17.984375 C 15.4375 -22.976562 12.5625 -25.125 8.265625 -25.125 C 3.96875 -25.125 1.15625 -22.976562 1.15625 -17.984375 Z M 1.15625 -17.984375 "/></g></g></g><g fill="#458a6b" fill-opacity="0.4"><g transform="translate(106.312798, 80.120595)"><g><path d="M 2.183594 -19.539062 L 2.183594 -6.679688 C 2.183594 0 6.25 0 9.851562 0 L 9.851562 -5.785156 C 8.960938 -5.652344 7.605469 -5.058594 7.605469 -8.265625 L 7.605469 -19.539062 L 9.058594 -19.539062 L 9.058594 -24.792969 L 7.605469 -24.792969 L 7.605469 -30.480469 L 6.578125 -30.480469 C 6.578125 -30.480469 5.6875 -28.5625 4.132812 -26.976562 C 2.414062 -25.222656 0.695312 -24.792969 0.660156 -24.792969 L 0.660156 -19.539062 Z M 2.183594 -19.539062 "/></g></g></g><g fill="#458a6b" fill-opacity="0.4"><g transform="translate(116.494729, 80.120595)"><g><path d="M 1.15625 -7.109375 C 1.15625 -3.933594 2.28125 0.332031 8.363281 0.332031 C 14.578125 0.332031 15.472656 -4.398438 15.472656 -7.109375 L 15.472656 -17.191406 C 15.472656 -20.398438 14.578125 -25.125 8.363281 -25.125 C 2.28125 -25.125 1.15625 -20.859375 1.15625 -17.6875 Z M 6.644531 -18.183594 C 6.710938 -19.734375 7.472656 -20.363281 8.296875 -20.363281 C 9.125 -20.363281 9.917969 -19.734375 9.949219 -18.183594 C 9.949219 -14.316406 9.949219 -10.480469 9.949219 -6.613281 C 9.917969 -5.058594 9.125 -4.429688 8.296875 -4.429688 C 7.472656 -4.429688 6.710938 -5.058594 6.644531 -6.613281 C 6.644531 -10.480469 6.644531 -14.316406 6.644531 -18.183594 Z M 6.644531 -18.183594 "/></g></g></g><g fill="#458a6b" fill-opacity="0.4"><g transform="translate(133.122999, 80.120595)"><g/></g></g><g fill="#458a6b" fill-opacity="0.4"><g transform="translate(141.387546, 80.120595)"><g><path d="M 0.660156 9.652344 L 7.933594 9.652344 C 6.84375 8.628906 7.042969 2.378906 7.042969 0.660156 L 7.042969 -1.15625 C 7.933594 -0.0976562 9.421875 0.332031 10.511719 0.332031 C 14.082031 0.332031 15.867188 -3.40625 15.867188 -8.363281 L 15.867188 -16.363281 C 15.867188 -22.082031 14.679688 -25.125 11.109375 -25.125 C 9.324219 -25.125 7.800781 -24.035156 7.074219 -23.140625 L 7.074219 -24.792969 L 0.695312 -24.792969 C 1.753906 -23.769531 1.554688 -17.554688 1.554688 -15.835938 L 1.554688 0.695312 C 1.554688 2.414062 1.753906 8.628906 0.660156 9.652344 Z M 7.074219 -18.183594 C 7.109375 -19.734375 7.902344 -20.363281 8.726562 -20.363281 C 9.554688 -20.363281 10.3125 -19.734375 10.378906 -18.183594 C 10.378906 -14.316406 10.378906 -10.480469 10.378906 -6.613281 C 10.3125 -5.058594 9.554688 -4.429688 8.726562 -4.429688 C 7.902344 -4.429688 7.109375 -5.058594 7.074219 -6.613281 C 7.074219 -10.480469 7.074219 -14.316406 7.074219 -18.183594 Z M 7.074219 -18.183594 "/></g></g></g><g fill="#458a6b" fill-opacity="0.4"><g transform="translate(158.412522, 80.120595)"><g><path d="M 1.15625 -17.984375 L 1.15625 -6.808594 C 1.15625 -1.816406 4.59375 0.332031 8.894531 0.332031 C 13.488281 0.332031 15.867188 -1.917969 15.867188 -4.894531 C 15.867188 -7.769531 14.082031 -8.660156 12.53125 -8.660156 C 11.273438 -8.660156 10.082031 -7.902344 10.082031 -6.976562 C 11.273438 -6.976562 11.4375 -4.398438 9.125 -4.398438 C 7.703125 -4.398438 6.679688 -5.058594 6.644531 -6.613281 C 6.644531 -7.273438 6.613281 -9.125 6.613281 -9.984375 L 15.40625 -9.984375 C 15.40625 -9.984375 15.4375 -12.628906 15.4375 -15.472656 L 15.4375 -17.984375 C 15.4375 -22.976562 12.5625 -25.125 8.265625 -25.125 C 3.96875 -25.125 1.15625 -22.976562 1.15625 -17.984375 Z M 6.679688 -18.183594 C 6.679688 -19.734375 7.503906 -20.363281 8.332031 -20.363281 C 9.15625 -20.363281 9.984375 -19.734375 9.984375 -18.183594 L 9.984375 -14.679688 L 6.679688 -14.679688 Z M 6.679688 -18.183594 "/></g></g></g><g fill="#458a6b" fill-opacity="0.4"><g transform="translate(175.272203, 80.120595)"><g><path d="M 7.835938 0 C 6.777344 -1.023438 6.976562 -7.238281 6.976562 -8.960938 L 6.976562 -12.992188 C 7.007812 -17.519531 7.304688 -20.363281 9.488281 -20.363281 C 10.3125 -20.363281 11.109375 -19.605469 11.109375 -17.949219 C 11.109375 -14.808594 9.519531 -15.207031 9.519531 -15.207031 C 9.519531 -13.453125 10.941406 -12.230469 12.464844 -12.230469 C 14.347656 -12.230469 16.429688 -14.050781 16.429688 -18.84375 C 16.429688 -21.917969 14.875 -25.125 11.503906 -25.125 C 8.828125 -25.125 7.472656 -22.976562 6.976562 -20.960938 L 6.976562 -24.792969 L 0.660156 -24.792969 C 1.71875 -23.769531 1.519531 -17.554688 1.519531 -15.835938 L 1.519531 -8.960938 C 1.519531 -7.238281 1.71875 -1.023438 0.660156 0 Z M 7.835938 0 "/></g></g></g><g fill="#458a6b" fill-opacity="0.4"><g transform="translate(192.52859, 80.120595)"><g><path d="M 7.667969 0.332031 C 11.40625 0.332031 14.710938 -2.082031 14.710938 -6.480469 C 14.710938 -14.015625 6.3125 -15.671875 6.414062 -19.042969 C 6.445312 -20.265625 7.539062 -20.660156 8.5625 -20.660156 C 10.148438 -20.660156 11.703125 -20.265625 13.191406 -19.371094 L 13.191406 -25.089844 C 10.445312 -24.792969 9.585938 -25.125 7.238281 -25.125 C 3.339844 -25.125 0.957031 -22.214844 0.957031 -19.007812 C 0.957031 -12.792969 9.585938 -11.703125 9.585938 -7.042969 C 9.585938 -5.324219 8.792969 -4.398438 7.605469 -4.398438 C 6.578125 -4.398438 5.753906 -5.125 5.753906 -6.148438 C 5.753906 -7.171875 6.414062 -7.800781 7.273438 -7.800781 C 7.273438 -8.296875 6.808594 -9.851562 4.660156 -9.851562 C 1.984375 -9.851562 0.660156 -7.933594 0.660156 -5.488281 C 0.660156 -2.480469 2.941406 0.332031 7.667969 0.332031 Z M 7.667969 0.332031 "/></g></g></g><g fill="#458a6b" fill-opacity="0.4"><g transform="translate(207.239499, 80.120595)"><g><path d="M 1.15625 -7.109375 C 1.15625 -3.933594 2.28125 0.332031 8.363281 0.332031 C 14.578125 0.332031 15.472656 -4.398438 15.472656 -7.109375 L 15.472656 -17.191406 C 15.472656 -20.398438 14.578125 -25.125 8.363281 -25.125 C 2.28125 -25.125 1.15625 -20.859375 1.15625 -17.6875 Z M 6.644531 -18.183594 C 6.710938 -19.734375 7.472656 -20.363281 8.296875 -20.363281 C 9.125 -20.363281 9.917969 -19.734375 9.949219 -18.183594 C 9.949219 -14.316406 9.949219 -10.480469 9.949219 -6.613281 C 9.917969 -5.058594 9.125 -4.429688 8.296875 -4.429688 C 7.472656 -4.429688 6.710938 -5.058594 6.644531 -6.613281 C 6.644531 -10.480469 6.644531 -14.316406 6.644531 -18.183594 Z M 6.644531 -18.183594 "/></g></g></g><g fill="#458a6b" fill-opacity="0.4"><g transform="translate(223.867769, 80.120595)"><g><path d="M 0.660156 0 L 7.835938 0 C 6.777344 -1.023438 6.976562 -7.238281 6.976562 -8.960938 C 6.976562 -12.035156 7.007812 -15.109375 7.007812 -18.183594 C 7.042969 -19.734375 7.933594 -20.363281 8.761719 -20.363281 C 9.554688 -20.363281 10.28125 -19.636719 10.3125 -18.082031 C 10.347656 -15.074219 10.3125 -12.035156 10.3125 -8.960938 C 10.3125 -7.238281 10.511719 -1.023438 9.453125 0 L 16.628906 0 C 15.605469 -1.023438 15.769531 -7.238281 15.769531 -8.960938 C 15.769531 -12.035156 15.800781 -15.109375 15.800781 -18.183594 C 15.800781 -21.390625 15.371094 -25.125 11.207031 -25.125 C 8.859375 -25.125 7.503906 -23.933594 7.042969 -23.140625 L 7.007812 -24.792969 L 0.660156 -24.792969 C 1.71875 -23.769531 1.519531 -17.554688 1.519531 -15.835938 C 1.519531 -12.761719 1.519531 -12.035156 1.519531 -8.960938 C 1.519531 -7.238281 1.71875 -1.023438 0.660156 0 Z M 0.660156 0 "/></g></g></g><g fill="#458a6b" fill-opacity="0.4"><g transform="translate(241.157214, 80.120595)"><g><path d="M 5.851562 0.332031 C 8.726562 0.363281 10.3125 -2.910156 10.3125 -2.910156 L 10.3125 0 L 16.5625 0 C 15.539062 -1.023438 15.734375 -7.238281 15.734375 -8.960938 C 15.734375 -10.679688 15.703125 -16.296875 15.703125 -16.296875 C 15.703125 -20.597656 14.347656 -25.125 8.429688 -25.125 C 3.703125 -25.125 1.453125 -22.316406 1.453125 -19.273438 C 1.453125 -16.859375 2.777344 -14.941406 5.453125 -14.941406 C 7.605469 -14.941406 8.066406 -16.496094 8.066406 -16.992188 C 7.207031 -16.992188 6.546875 -17.585938 6.546875 -18.644531 C 6.546875 -19.671875 7.371094 -20.363281 8.398438 -20.363281 C 9.820312 -20.363281 10.3125 -19.304688 10.3125 -18.414062 C 10.3125 -12.296875 0.992188 -14.644531 0.992188 -5.386719 C 0.992188 -2.117188 3.042969 0.332031 5.851562 0.332031 Z M 10.25 -10.777344 L 10.25 -6.941406 C 10.25 -5.488281 9.71875 -4.429688 8.660156 -4.429688 C 7.539062 -4.429688 7.007812 -5.355469 7.007812 -6.511719 C 7.007812 -8.894531 9.058594 -9.882812 10.25 -10.777344 Z M 10.25 -10.777344 "/></g></g></g><g fill="#458a6b" fill-opacity="0.4"><g transform="translate(258.380542, 80.120595)"><g><path d="M 0.660156 -34.449219 C 1.71875 -33.421875 1.519531 -27.207031 1.519531 -25.488281 L 1.519531 -8.960938 C 1.519531 -7.238281 1.71875 -1.023438 0.660156 0 L 7.835938 0 C 6.777344 -1.023438 6.976562 -7.238281 6.976562 -8.960938 L 6.976562 -25.488281 C 6.976562 -27.207031 6.777344 -33.421875 7.835938 -34.449219 Z M 0.660156 -34.449219 "/></g></g></g><g fill="#458a6b" fill-opacity="1"><g transform="translate(1.809352, 78.659564)"><g><path d="M 0.992188 0 L 8.296875 0 C 7.238281 -1.023438 7.4375 -7.238281 7.4375 -8.960938 C 7.4375 -10.679688 7.40625 -12.828125 7.40625 -12.859375 C 12.59375 -14.445312 17.585938 -18.777344 17.585938 -25.324219 C 17.585938 -31.769531 14.117188 -34.449219 8.332031 -34.449219 L 0.992188 -34.449219 C 2.050781 -33.421875 1.851562 -27.207031 1.851562 -25.488281 L 1.851562 -8.960938 C 1.851562 -7.238281 2.050781 -1.023438 0.992188 0 Z M 7.40625 -18.976562 L 7.40625 -29.222656 L 8.761719 -29.222656 C 10.941406 -29.222656 12 -27.636719 12 -25.355469 C 12 -21.984375 9.917969 -18.976562 7.40625 -18.976562 Z M 7.40625 -18.976562 "/></g></g></g><g fill="#458a6b" fill-opacity="1"><g transform="translate(20.388063, 78.659564)"><g><path d="M 7.835938 0 C 6.777344 -1.023438 6.976562 -7.238281 6.976562 -8.960938 L 6.976562 -12.992188 C 7.007812 -17.519531 7.304688 -20.363281 9.488281 -20.363281 C 10.3125 -20.363281 11.109375 -19.605469 11.109375 -17.949219 C 11.109375 -14.808594 9.519531 -15.207031 9.519531 -15.207031 C 9.519531 -13.453125 10.941406 -12.230469 12.464844 -12.230469 C 14.347656 -12.230469 16.429688 -14.050781 16.429688 -18.84375 C 16.429688 -21.917969 14.875 -25.125 11.503906 -25.125 C 8.828125 -25.125 7.472656 -22.976562 6.976562 -20.960938 L 6.976562 -24.792969 L 0.660156 -24.792969 C 1.71875 -23.769531 1.519531 -17.554688 1.519531 -15.835938 L 1.519531 -8.960938 C 1.519531 -7.238281 1.71875 -1.023438 0.660156 0 Z M 7.835938 0 "/></g></g></g><g fill="#458a6b" fill-opacity="1"><g transform="translate(37.644443, 78.659564)"><g><path d="M 1.15625 -7.109375 C 1.15625 -3.933594 2.28125 0.332031 8.363281 0.332031 C 14.578125 0.332031 15.472656 -4.398438 15.472656 -7.109375 L 15.472656 -17.191406 C 15.472656 -20.398438 14.578125 -25.125 8.363281 -25.125 C 2.28125 -25.125 1.15625 -20.859375 1.15625 -17.6875 Z M 6.644531 -18.183594 C 6.710938 -19.734375 7.472656 -20.363281 8.296875 -20.363281 C 9.125 -20.363281 9.917969 -19.734375 9.949219 -18.183594 C 9.949219 -14.316406 9.949219 -10.480469 9.949219 -6.613281 C 9.917969 -5.058594 9.125 -4.429688 8.296875 -4.429688 C 7.472656 -4.429688 6.710938 -5.058594 6.644531 -6.613281 C 6.644531 -10.480469 6.644531 -14.316406 6.644531 -18.183594 Z M 6.644531 -18.183594 "/></g></g></g><g fill="#458a6b" fill-opacity="1"><g transform="translate(54.272722, 78.659564)"><g><path d="M 1.519531 -15.835938 C 1.519531 -12.429688 1.488281 -8.992188 1.488281 -5.585938 C 1.488281 -2.378906 2.246094 0.332031 5.621094 0.332031 C 7.273438 0.332031 9.058594 -0.199219 9.949219 -1.089844 L 9.984375 3.503906 C 9.984375 4.925781 9.191406 5.585938 8.265625 5.585938 C 7.339844 5.585938 6.84375 4.859375 6.84375 4.199219 C 6.84375 3.539062 7.339844 2.941406 8.265625 2.941406 C 8.265625 2.445312 7.238281 1.585938 5.488281 1.585938 C 3.140625 1.585938 1.222656 2.875 1.222656 5.585938 C 1.222656 8.332031 2.941406 11.175781 8.363281 11.175781 C 13.324219 11.175781 15.769531 8.164062 15.769531 4.363281 L 15.769531 -15.800781 C 15.769531 -17.519531 15.570312 -23.769531 16.628906 -24.792969 L 9.453125 -24.792969 C 10.480469 -23.769531 10.3125 -17.519531 10.3125 -15.800781 L 10.3125 -6.445312 C 10.3125 -4.894531 9.355469 -4.429688 8.660156 -4.429688 C 7.96875 -4.429688 6.941406 -4.894531 6.941406 -6.445312 L 6.941406 -18.28125 C 6.941406 -20.464844 6.976562 -22.613281 6.976562 -24.792969 L 0.660156 -24.792969 C 1.71875 -23.769531 1.519531 -17.554688 1.519531 -15.835938 Z M 1.519531 -15.835938 "/></g></g></g><g fill="#458a6b" fill-opacity="1"><g transform="translate(71.562162, 78.659564)"><g><path d="M 1.15625 -17.984375 L 1.15625 -6.808594 C 1.15625 -1.816406 4.59375 0.332031 8.894531 0.332031 C 13.488281 0.332031 15.867188 -1.917969 15.867188 -4.894531 C 15.867188 -7.769531 14.082031 -8.660156 12.53125 -8.660156 C 11.273438 -8.660156 10.082031 -7.902344 10.082031 -6.976562 C 11.273438 -6.976562 11.4375 -4.398438 9.125 -4.398438 C 7.703125 -4.398438 6.679688 -5.058594 6.644531 -6.613281 C 6.644531 -7.273438 6.613281 -9.125 6.613281 -9.984375 L 15.40625 -9.984375 C 15.40625 -9.984375 15.4375 -12.628906 15.4375 -15.472656 L 15.4375 -17.984375 C 15.4375 -22.976562 12.5625 -25.125 8.265625 -25.125 C 3.96875 -25.125 1.15625 -22.976562 1.15625 -17.984375 Z M 6.679688 -18.183594 C 6.679688 -19.734375 7.503906 -20.363281 8.332031 -20.363281 C 9.15625 -20.363281 9.984375 -19.734375 9.984375 -18.183594 L 9.984375 -14.679688 L 6.679688 -14.679688 Z M 6.679688 -18.183594 "/></g></g></g><g fill="#458a6b" fill-opacity="1"><g transform="translate(88.421843, 78.659564)"><g><path d="M 1.15625 -17.984375 L 1.15625 -6.808594 C 1.15625 -1.816406 3.96875 0.332031 8.265625 0.332031 C 12.53125 0.332031 15.4375 -1.816406 15.4375 -6.808594 L 15.4375 -9.324219 L 9.984375 -9.324219 C 9.984375 -8.464844 9.949219 -7.273438 9.949219 -6.613281 C 9.917969 -5.058594 9.125 -4.398438 8.296875 -4.398438 C 7.472656 -4.398438 6.679688 -5.058594 6.644531 -6.613281 C 6.644531 -10.480469 6.644531 -14.316406 6.644531 -18.183594 C 6.679688 -19.734375 7.472656 -20.363281 8.296875 -20.363281 C 9.125 -20.363281 9.917969 -19.734375 9.949219 -18.183594 C 9.949219 -17.519531 9.984375 -16.332031 9.984375 -15.472656 L 15.4375 -15.472656 L 15.4375 -17.984375 C 15.4375 -22.976562 12.5625 -25.125 8.265625 -25.125 C 3.96875 -25.125 1.15625 -22.976562 1.15625 -17.984375 Z M 1.15625 -17.984375 "/></g></g></g><g fill="#458a6b" fill-opacity="1"><g transform="translate(104.851767, 78.659564)"><g><path d="M 2.183594 -19.539062 L 2.183594 -6.679688 C 2.183594 0 6.25 0 9.851562 0 L 9.851562 -5.785156 C 8.960938 -5.652344 7.605469 -5.058594 7.605469 -8.265625 L 7.605469 -19.539062 L 9.058594 -19.539062 L 9.058594 -24.792969 L 7.605469 -24.792969 L 7.605469 -30.480469 L 6.578125 -30.480469 C 6.578125 -30.480469 5.6875 -28.5625 4.132812 -26.976562 C 2.414062 -25.222656 0.695312 -24.792969 0.660156 -24.792969 L 0.660156 -19.539062 Z M 2.183594 -19.539062 "/></g></g></g><g fill="#458a6b" fill-opacity="1"><g transform="translate(115.033698, 78.659564)"><g><path d="M 1.15625 -7.109375 C 1.15625 -3.933594 2.28125 0.332031 8.363281 0.332031 C 14.578125 0.332031 15.472656 -4.398438 15.472656 -7.109375 L 15.472656 -17.191406 C 15.472656 -20.398438 14.578125 -25.125 8.363281 -25.125 C 2.28125 -25.125 1.15625 -20.859375 1.15625 -17.6875 Z M 6.644531 -18.183594 C 6.710938 -19.734375 7.472656 -20.363281 8.296875 -20.363281 C 9.125 -20.363281 9.917969 -19.734375 9.949219 -18.183594 C 9.949219 -14.316406 9.949219 -10.480469 9.949219 -6.613281 C 9.917969 -5.058594 9.125 -4.429688 8.296875 -4.429688 C 7.472656 -4.429688 6.710938 -5.058594 6.644531 -6.613281 C 6.644531 -10.480469 6.644531 -14.316406 6.644531 -18.183594 Z M 6.644531 -18.183594 "/></g></g></g><g fill="#458a6b" fill-opacity="1"><g transform="translate(131.661969, 78.659564)"><g/></g></g><g fill="#458a6b" fill-opacity="1"><g transform="translate(139.926516, 78.659564)"><g><path d="M 0.660156 9.652344 L 7.933594 9.652344 C 6.84375 8.628906 7.042969 2.378906 7.042969 0.660156 L 7.042969 -1.15625 C 7.933594 -0.0976562 9.421875 0.332031 10.511719 0.332031 C 14.082031 0.332031 15.867188 -3.40625 15.867188 -8.363281 L 15.867188 -16.363281 C 15.867188 -22.082031 14.679688 -25.125 11.109375 -25.125 C 9.324219 -25.125 7.800781 -24.035156 7.074219 -23.140625 L 7.074219 -24.792969 L 0.695312 -24.792969 C 1.753906 -23.769531 1.554688 -17.554688 1.554688 -15.835938 L 1.554688 0.695312 C 1.554688 2.414062 1.753906 8.628906 0.660156 9.652344 Z M 7.074219 -18.183594 C 7.109375 -19.734375 7.902344 -20.363281 8.726562 -20.363281 C 9.554688 -20.363281 10.3125 -19.734375 10.378906 -18.183594 C 10.378906 -14.316406 10.378906 -10.480469 10.378906 -6.613281 C 10.3125 -5.058594 9.554688 -4.429688 8.726562 -4.429688 C 7.902344 -4.429688 7.109375 -5.058594 7.074219 -6.613281 C 7.074219 -10.480469 7.074219 -14.316406 7.074219 -18.183594 Z M 7.074219 -18.183594 "/></g></g></g><g fill="#458a6b" fill-opacity="1"><g transform="translate(156.951491, 78.659564)"><g><path d="M 1.15625 -17.984375 L 1.15625 -6.808594 C 1.15625 -1.816406 4.59375 0.332031 8.894531 0.332031 C 13.488281 0.332031 15.867188 -1.917969 15.867188 -4.894531 C 15.867188 -7.769531 14.082031 -8.660156 12.53125 -8.660156 C 11.273438 -8.660156 10.082031 -7.902344 10.082031 -6.976562 C 11.273438 -6.976562 11.4375 -4.398438 9.125 -4.398438 C 7.703125 -4.398438 6.679688 -5.058594 6.644531 -6.613281 C 6.644531 -7.273438 6.613281 -9.125 6.613281 -9.984375 L 15.40625 -9.984375 C 15.40625 -9.984375 15.4375 -12.628906 15.4375 -15.472656 L 15.4375 -17.984375 C 15.4375 -22.976562 12.5625 -25.125 8.265625 -25.125 C 3.96875 -25.125 1.15625 -22.976562 1.15625 -17.984375 Z M 6.679688 -18.183594 C 6.679688 -19.734375 7.503906 -20.363281 8.332031 -20.363281 C 9.15625 -20.363281 9.984375 -19.734375 9.984375 -18.183594 L 9.984375 -14.679688 L 6.679688 -14.679688 Z M 6.679688 -18.183594 "/></g></g></g><g fill="#458a6b" fill-opacity="1"><g transform="translate(173.811173, 78.659564)"><g><path d="M 7.835938 0 C 6.777344 -1.023438 6.976562 -7.238281 6.976562 -8.960938 L 6.976562 -12.992188 C 7.007812 -17.519531 7.304688 -20.363281 9.488281 -20.363281 C 10.3125 -20.363281 11.109375 -19.605469 11.109375 -17.949219 C 11.109375 -14.808594 9.519531 -15.207031 9.519531 -15.207031 C 9.519531 -13.453125 10.941406 -12.230469 12.464844 -12.230469 C 14.347656 -12.230469 16.429688 -14.050781 16.429688 -18.84375 C 16.429688 -21.917969 14.875 -25.125 11.503906 -25.125 C 8.828125 -25.125 7.472656 -22.976562 6.976562 -20.960938 L 6.976562 -24.792969 L 0.660156 -24.792969 C 1.71875 -23.769531 1.519531 -17.554688 1.519531 -15.835938 L 1.519531 -8.960938 C 1.519531 -7.238281 1.71875 -1.023438 0.660156 0 Z M 7.835938 0 "/></g></g></g><g fill="#458a6b" fill-opacity="1"><g transform="translate(191.067559, 78.659564)"><g><path d="M 7.667969 0.332031 C 11.40625 0.332031 14.710938 -2.082031 14.710938 -6.480469 C 14.710938 -14.015625 6.3125 -15.671875 6.414062 -19.042969 C 6.445312 -20.265625 7.539062 -20.660156 8.5625 -20.660156 C 10.148438 -20.660156 11.703125 -20.265625 13.191406 -19.371094 L 13.191406 -25.089844 C 10.445312 -24.792969 9.585938 -25.125 7.238281 -25.125 C 3.339844 -25.125 0.957031 -22.214844 0.957031 -19.007812 C 0.957031 -12.792969 9.585938 -11.703125 9.585938 -7.042969 C 9.585938 -5.324219 8.792969 -4.398438 7.605469 -4.398438 C 6.578125 -4.398438 5.753906 -5.125 5.753906 -6.148438 C 5.753906 -7.171875 6.414062 -7.800781 7.273438 -7.800781 C 7.273438 -8.296875 6.808594 -9.851562 4.660156 -9.851562 C 1.984375 -9.851562 0.660156 -7.933594 0.660156 -5.488281 C 0.660156 -2.480469 2.941406 0.332031 7.667969 0.332031 Z M 7.667969 0.332031 "/></g></g></g><g fill="#458a6b" fill-opacity="1"><g transform="translate(205.778468, 78.659564)"><g><path d="M 1.15625 -7.109375 C 1.15625 -3.933594 2.28125 0.332031 8.363281 0.332031 C 14.578125 0.332031 15.472656 -4.398438 15.472656 -7.109375 L 15.472656 -17.191406 C 15.472656 -20.398438 14.578125 -25.125 8.363281 -25.125 C 2.28125 -25.125 1.15625 -20.859375 1.15625 -17.6875 Z M 6.644531 -18.183594 C 6.710938 -19.734375 7.472656 -20.363281 8.296875 -20.363281 C 9.125 -20.363281 9.917969 -19.734375 9.949219 -18.183594 C 9.949219 -14.316406 9.949219 -10.480469 9.949219 -6.613281 C 9.917969 -5.058594 9.125 -4.429688 8.296875 -4.429688 C 7.472656 -4.429688 6.710938 -5.058594 6.644531 -6.613281 C 6.644531 -10.480469 6.644531 -14.316406 6.644531 -18.183594 Z M 6.644531 -18.183594 "/></g></g></g><g fill="#458a6b" fill-opacity="1"><g transform="translate(222.406739, 78.659564)"><g><path d="M 0.660156 0 L 7.835938 0 C 6.777344 -1.023438 6.976562 -7.238281 6.976562 -8.960938 C 6.976562 -12.035156 7.007812 -15.109375 7.007812 -18.183594 C 7.042969 -19.734375 7.933594 -20.363281 8.761719 -20.363281 C 9.554688 -20.363281 10.28125 -19.636719 10.3125 -18.082031 C 10.347656 -15.074219 10.3125 -12.035156 10.3125 -8.960938 C 10.3125 -7.238281 10.511719 -1.023438 9.453125 0 L 16.628906 0 C 15.605469 -1.023438 15.769531 -7.238281 15.769531 -8.960938 C 15.769531 -12.035156 15.800781 -15.109375 15.800781 -18.183594 C 15.800781 -21.390625 15.371094 -25.125 11.207031 -25.125 C 8.859375 -25.125 7.503906 -23.933594 7.042969 -23.140625 L 7.007812 -24.792969 L 0.660156 -24.792969 C 1.71875 -23.769531 1.519531 -17.554688 1.519531 -15.835938 C 1.519531 -12.761719 1.519531 -12.035156 1.519531 -8.960938 C 1.519531 -7.238281 1.71875 -1.023438 0.660156 0 Z M 0.660156 0 "/></g></g></g><g fill="#458a6b" fill-opacity="1"><g transform="translate(239.696184, 78.659564)"><g><path d="M 5.851562 0.332031 C 8.726562 0.363281 10.3125 -2.910156 10.3125 -2.910156 L 10.3125 0 L 16.5625 0 C 15.539062 -1.023438 15.734375 -7.238281 15.734375 -8.960938 C 15.734375 -10.679688 15.703125 -16.296875 15.703125 -16.296875 C 15.703125 -20.597656 14.347656 -25.125 8.429688 -25.125 C 3.703125 -25.125 1.453125 -22.316406 1.453125 -19.273438 C 1.453125 -16.859375 2.777344 -14.941406 5.453125 -14.941406 C 7.605469 -14.941406 8.066406 -16.496094 8.066406 -16.992188 C 7.207031 -16.992188 6.546875 -17.585938 6.546875 -18.644531 C 6.546875 -19.671875 7.371094 -20.363281 8.398438 -20.363281 C 9.820312 -20.363281 10.3125 -19.304688 10.3125 -18.414062 C 10.3125 -12.296875 0.992188 -14.644531 0.992188 -5.386719 C 0.992188 -2.117188 3.042969 0.332031 5.851562 0.332031 Z M 10.25 -10.777344 L 10.25 -6.941406 C 10.25 -5.488281 9.71875 -4.429688 8.660156 -4.429688 C 7.539062 -4.429688 7.007812 -5.355469 7.007812 -6.511719 C 7.007812 -8.894531 9.058594 -9.882812 10.25 -10.777344 Z M 10.25 -10.777344 "/></g></g></g><g fill="#458a6b" fill-opacity="1"><g transform="translate(256.919511, 78.659564)"><g><path d="M 0.660156 -34.449219 C 1.71875 -33.421875 1.519531 -27.207031 1.519531 -25.488281 L 1.519531 -8.960938 C 1.519531 -7.238281 1.71875 -1.023438 0.660156 0 L 7.835938 0 C 6.777344 -1.023438 6.976562 -7.238281 6.976562 -8.960938 L 6.976562 -25.488281 C 6.976562 -27.207031 6.777344 -33.421875 7.835938 -34.449219 Z M 0.660156 -34.449219 "/></g></g></g></svg>